# Blender v2.79 (sub 0) OBJ File: 'Cercas.blend'
# www.blender.org
mtllib CercasForca.mtl
o Cube_Cube.002
v 1.864283 2.460869 8.706904
v 1.864282 2.460869 9.759045
v 1.855585 2.460867 9.759045
v 1.855586 2.460869 8.706904
v 2.192080 2.587991 28.120514
v -4.998620 0.320846 1.128758
v 3.679320 0.320846 1.128758
v -4.998620 5.269539 1.128758
v 3.679320 5.269539 1.128758
v 3.679320 0.320846 1.083847
v -4.998620 0.320846 1.083847
v 3.679320 5.269539 1.083847
v -4.998620 5.269539 1.083847
vt 0.907616 0.930959
vt 0.944251 0.930959
vt 0.944251 0.951851
vt 0.907616 0.951851
vt 0.944616 0.930962
vt 0.981251 0.930962
vt 0.981251 0.951854
vt 0.944616 0.951854
vt 0.944698 0.972747
vt 0.944333 0.972744
vt 0.944698 0.993638
vt 0.944333 0.993635
vt 0.944170 0.910066
vt 0.944535 0.910069
vn 0.0000 0.0000 1.0000
vn 0.0000 0.0000 -1.0000
vn 0.0000 1.0000 0.0000
vn -1.0000 0.0000 0.0000
vn 0.0000 -1.0000 0.0000
vn 1.0000 0.0000 0.0000
g Cube_Cube.002_Material
usemtl Material
s off
f 6/1/1 7/2/1 9/3/1 8/4/1
f 10/5/2 11/6/2 13/7/2 12/8/2
f 9/3/3 12/8/3 13/9/3 8/10/3
f 8/10/4 13/9/4 11/11/4 6/12/4
f 6/13/5 11/14/5 10/5/5 7/2/5
f 7/2/6 10/5/6 12/8/6 9/3/6
l 3 2
l 1 4
