# Blender v2.80 (sub 75) OBJ File: 'untitled.blend'
# www.blender.org
mtllib Cruzamento.mtl
o Cube.002
v 1.028783 -0.000000 0.400022
v 3.033317 -0.000000 0.400022
v 1.028783 0.000000 -1.599978
v 3.033317 0.000000 -1.599978
v 1.028783 -0.000000 2.399911
v -1.014927 -0.000000 2.399911
v -1.014927 -0.000000 0.400022
v -3.054100 -0.000000 0.400022
v -3.054100 -0.000000 -1.599978
v -1.014927 0.000000 -1.599978
vt 0.331823 0.329319
vt 0.660298 0.329319
vt 0.660298 0.664992
vt 0.331823 0.664992
vt 0.660298 0.000081
vt 0.988791 0.000081
vt 0.988791 0.329319
vt 0.660298 0.999919
vt 0.988791 0.664992
vt 0.988791 0.999919
vn 0.0000 1.0000 0.0000
usemtl Material.004
s off
f 5/1/1 1/2/1 7/3/1 6/4/1
f 1/2/1 2/5/1 4/6/1 3/7/1
f 8/8/1 7/3/1 10/9/1 9/10/1
f 7/3/1 1/2/1 3/7/1 10/9/1
