# Blender v2.79 (sub 0) OBJ File: 'Modulo parque.blend'
# www.blender.org
mtllib fonteparque.mtl
o Cube
v 2.102443 1.616248 1.415546
v 2.102443 1.932665 2.772993
v 3.288630 1.616248 1.906881
v 2.328771 1.932665 2.866741
v 3.779965 1.616248 3.093069
v 2.422519 1.932665 3.093069
v 3.288630 1.616248 4.279254
v 2.328771 1.932665 3.319395
v 2.102443 1.616248 4.770589
v 2.102443 1.932665 3.413143
v 0.916256 1.616248 4.279254
v 1.876115 1.932665 3.319395
v 0.424921 1.616248 3.093069
v 1.782368 1.932665 3.093069
v 0.916256 1.616248 1.906881
v 1.876115 1.932665 2.866741
v 3.288630 1.932665 1.906881
v 2.102443 1.932665 1.415546
v 3.779965 1.932665 3.093069
v 3.288630 1.932665 4.279254
v 2.102443 1.932665 4.770589
v 0.916256 1.932665 4.279254
v 0.424921 1.932665 3.093069
v 0.916256 1.932665 1.906881
v 3.511171 2.282786 1.684339
v 2.102443 2.282786 1.100826
v 4.094687 2.282786 3.093069
v 3.511171 2.282786 4.501796
v 2.102443 2.282786 5.085311
v 0.693714 2.282786 4.501796
v 0.110200 2.282786 3.093069
v 0.693714 2.282786 1.684339
v 3.440941 2.282786 1.754570
v 2.102443 2.282786 1.200147
v 3.995365 2.282786 3.093069
v 3.440941 2.282786 4.431566
v 2.102443 2.282786 4.985990
v 0.763945 2.282786 4.431566
v 0.209521 2.282786 3.093069
v 0.763945 2.282786 1.754570
v 3.229494 1.932665 1.966016
v 2.102443 1.932665 1.499177
v 3.696334 1.932665 3.093069
v 3.229494 1.932665 4.220119
v 2.102443 1.932665 4.686958
v 0.975392 1.932665 4.220119
v 0.508553 1.932665 3.093069
v 0.975392 1.932665 1.966016
v 2.328771 3.164738 2.866741
v 2.102443 3.164738 2.772993
v 2.422519 3.164738 3.093069
v 2.328771 3.164738 3.319395
v 2.102443 3.164738 3.413143
v 1.876115 3.164738 3.319395
v 1.782368 3.164738 3.093069
v 1.876115 3.164738 2.866741
v 2.328771 3.289272 2.866741
v 2.102443 3.289272 2.772993
v 2.422519 3.289272 3.093069
v 2.328771 3.289272 3.319395
v 2.102443 3.289272 3.413143
v 1.876115 3.289272 3.319395
v 1.782368 3.289272 3.093069
v 1.876115 3.289272 2.866741
v 2.328771 4.606720 2.866741
v 2.102443 4.606720 2.772993
v 2.422518 4.606720 3.093069
v 2.328770 4.606720 3.319395
v 2.102443 4.606720 3.413143
v 1.876115 4.606720 3.319395
v 1.782367 4.606720 3.093069
v 1.876115 4.606720 2.866741
v 2.247632 4.809935 2.947877
v 2.102443 4.809935 2.887739
v 2.307772 4.809935 3.093069
v 2.247632 4.809935 3.238256
v 2.102443 4.809935 3.298397
v 1.957254 4.809935 3.238256
v 1.897114 4.809935 3.093069
v 1.957254 4.809935 2.947877
v 2.759195 3.349970 2.436317
v 2.102443 3.349970 2.164281
v 3.031231 3.349970 3.093069
v 2.759195 3.349970 3.749820
v 2.102443 3.349970 4.021856
v 1.445690 3.349970 3.749820
v 1.173655 3.349970 3.093069
v 1.445690 3.349970 2.436317
v 2.977521 3.194110 2.217992
v 2.102443 3.194110 1.855524
v 3.339990 3.194110 3.093069
v 2.977521 3.194110 3.968145
v 2.102443 3.194110 4.330616
v 1.227365 3.194110 3.968145
v 0.864896 3.194110 3.093069
v 1.227365 3.194110 2.217992
v 2.977521 3.446747 2.217992
v 2.102443 3.446747 1.855524
v 3.339990 3.446747 3.093069
v 2.977521 3.446747 3.968145
v 2.102443 3.446747 4.330616
v 1.227365 3.446747 3.968145
v 0.864896 3.446747 3.093069
v 1.227365 3.446747 2.217992
vt 0.326327 0.214701
vt 0.336944 0.216671
vt 0.321953 0.258388
vt 0.313129 0.253924
vt 0.298042 0.291196
vt 0.291433 0.285003
vt 0.268606 0.313869
vt 0.264371 0.306749
vt 0.237877 0.325927
vt 0.235099 0.319102
vt 0.250125 0.036151
vt 0.259754 0.026578
vt 0.299993 0.066643
vt 0.288971 0.075222
vt 0.328070 0.116853
vt 0.316150 0.121698
vt 0.351381 0.840474
vt 0.393922 0.840474
vt 0.393922 0.990571
vt 0.351381 0.990571
vt 0.339850 0.168360
vt 0.328122 0.169553
vt 0.307041 0.300684
vt 0.274046 0.324522
vt 0.517823 0.160343
vt 0.551560 0.127025
vt 0.569475 0.134273
vt 0.526026 0.178040
vt 0.468778 0.160946
vt 0.462925 0.180663
vt 0.269737 0.009018
vt 0.316445 0.054827
vt 0.426225 0.131340
vt 0.411410 0.144120
vt 0.345667 0.110864
vt 0.356858 0.167631
vt 0.334296 0.265569
vt 0.432072 0.062791
vt 0.413101 0.107943
vt 0.395355 0.105548
vt 0.417603 0.050285
vt 0.571576 0.073044
vt 0.532517 0.026493
vt 0.534485 0.022926
vt 0.575418 0.071764
vt 0.471123 0.018907
vt 0.470345 0.014934
vt 0.414548 0.047605
vt 0.391286 0.105593
vt 0.461710 0.184618
vt 0.407915 0.146313
vt 0.527655 0.181852
vt 0.573213 0.135931
vt 0.352081 0.220408
vt 0.553489 0.079641
vt 0.523977 0.043256
vt 0.475121 0.037891
vt 0.238867 0.336789
vt 0.435798 0.071400
vt 0.299261 0.678931
vt 0.328700 0.678933
vt 0.328700 0.826993
vt 0.299261 0.826993
vt 0.358139 0.678933
vt 0.358139 0.826993
vt 0.812328 0.873047
vt 0.793219 0.873047
vt 0.793219 0.776939
vt 0.812328 0.776939
vt 0.308840 0.840474
vt 0.308840 0.990571
vt 0.269821 0.678931
vt 0.269821 0.826993
vt 0.387578 0.678933
vt 0.387578 0.826993
vt 0.266299 0.840474
vt 0.266299 0.990571
vt 0.853592 0.993012
vt 0.838458 0.991877
vt 0.845657 0.916854
vt 0.858330 0.919486
vt 0.908799 0.919976
vt 0.896307 0.921108
vt 0.895698 0.906376
vt 0.906826 0.906218
vt 0.943020 0.990428
vt 0.928675 0.991708
vt 0.921754 0.917805
vt 0.936135 0.913282
vt 0.898750 0.993574
vt 0.883733 0.993875
vt 0.883610 0.921430
vt 0.868679 0.993689
vt 0.870889 0.920841
vt 0.823247 0.990356
vt 0.831902 0.912348
vt 0.913714 0.992830
vt 0.315068 0.367572
vt 0.315066 0.398321
vt 0.293323 0.420064
vt 0.262573 0.420063
vt 0.293323 0.345830
vt 0.871904 0.905949
vt 0.883827 0.905580
vt 0.850026 0.903551
vt 0.860623 0.905413
vt 0.917269 0.903604
vt 0.927354 0.899060
vt 0.840543 0.899060
vt 0.127468 0.817065
vt 0.127472 0.861491
vt 0.108603 0.869347
vt 0.108466 0.809319
vt 0.158969 0.785718
vt 0.151020 0.766745
vt 0.203483 0.785827
vt 0.211342 0.766745
vt 0.235081 0.817040
vt 0.253951 0.809166
vt 0.235069 0.861426
vt 0.203559 0.892700
vt 0.998621 0.624551
vt 0.998621 0.661652
vt 0.988725 0.661652
vt 0.988725 0.624551
vt 0.998621 0.698753
vt 0.998621 0.735855
vt 0.988725 0.735855
vt 0.988725 0.698753
vt 0.998621 0.476146
vt 0.998621 0.513247
vt 0.988725 0.513247
vt 0.988725 0.476146
vt 0.998621 0.550348
vt 0.998621 0.587450
vt 0.988725 0.587450
vt 0.988725 0.550348
vt 0.998621 0.439045
vt 0.988725 0.439045
vt 0.035847 0.298107
vt 0.035847 0.388334
vt 0.009420 0.361907
vt 0.009421 0.324534
vt 0.159039 0.892802
vt 0.151117 0.911767
vt 0.073220 0.388334
vt 0.073220 0.298107
vt 0.211450 0.911797
vt 0.254075 0.869190
vt 0.099647 0.324534
vt 0.099647 0.361907
vt 0.432640 0.123571
vt 0.240833 0.398321
vt 0.240833 0.367572
vt 0.262576 0.345830
vn 0.3827 0.0000 -0.9239
vn 0.9239 0.0000 -0.3827
vn 0.9239 0.0000 0.3827
vn 0.3827 0.0000 0.9239
vn -0.3827 0.0000 0.9239
vn -0.9239 0.0000 0.3827
vn -0.9239 0.0000 -0.3827
vn -0.3827 0.0000 -0.9239
vn 0.7107 -0.6389 0.2944
vn 0.7253 0.6194 0.3004
vn 0.7253 0.6194 -0.3004
vn -0.2944 -0.6389 0.7107
vn 0.3004 0.6194 -0.7253
vn -0.7107 -0.6389 -0.2944
vn 0.7107 -0.6389 -0.2944
vn -0.3004 0.6194 -0.7253
vn 0.0000 1.0000 0.0000
vn -0.2944 -0.6389 -0.7107
vn 0.2944 -0.6389 -0.7107
vn 0.3004 0.6194 0.7253
vn -0.3004 0.6194 0.7253
vn -0.7107 -0.6389 0.2944
vn -0.7253 0.6194 0.3004
vn 0.2944 -0.6389 0.7107
vn -0.7253 0.6194 -0.3004
vn -0.3393 0.4625 -0.8191
vn -0.8191 0.4625 0.3393
vn 0.3393 0.4625 0.8191
vn 0.8191 0.4625 -0.3393
vn -0.8191 0.4625 -0.3393
vn -0.3393 0.4625 0.8191
vn 0.8191 0.4625 0.3393
vn 0.3393 0.4625 -0.8191
vn 0.2968 0.9470 -0.1229
vn 0.1229 0.9470 -0.2968
vn -0.1229 0.9470 -0.2968
vn -0.2968 0.9470 -0.1229
vn 0.0000 -1.0000 0.0000
vn 0.2968 0.9470 0.1229
vn 0.1229 0.9470 0.2968
vn -0.1229 0.9470 0.2968
vn -0.2968 0.9470 0.1229
usemtl Material.003
s off
f 1/1/1 18/2/1 17/3/1 3/4/1
f 3/4/2 17/3/2 19/5/2 5/6/2
f 5/6/3 19/5/3 20/7/3 7/8/3
f 7/8/4 20/7/4 21/9/4 9/10/4
f 9/11/5 21/12/5 22/13/5 11/14/5
f 11/14/6 22/13/6 23/15/6 13/16/6
f 8/17/3 6/18/3 51/19/3 52/20/3
f 13/16/7 23/15/7 24/21/7 15/22/7
f 15/22/8 24/21/8 18/2/8 1/1/8
f 20/7/9 19/5/9 27/23/9 28/24/9
f 47/25/10 48/26/10 40/27/10 39/28/10
f 46/29/11 47/25/11 39/28/11 38/30/11
f 22/13/12 21/12/12 29/31/12 30/32/12
f 45/33/13 46/29/13 38/30/13 37/34/13
f 24/21/14 23/15/14 31/35/14 32/36/14
f 19/5/15 17/3/15 25/37/15 27/23/15
f 44/38/16 45/39/16 37/40/16 36/41/16
f 34/42/17 33/43/17 25/44/17 26/45/17
f 33/43/17 35/46/17 27/47/17 25/44/17
f 35/46/17 36/41/17 28/48/17 27/47/17
f 36/41/17 37/40/17 29/49/17 28/48/17
f 37/34/17 38/30/17 30/50/17 29/51/17
f 38/30/17 39/28/17 31/52/17 30/50/17
f 39/28/17 40/27/17 32/53/17 31/52/17
f 40/27/17 34/42/17 26/45/17 32/53/17
f 18/2/18 24/21/18 32/36/18 26/54/18
f 17/3/19 18/2/19 26/54/19 25/37/19
f 48/26/20 42/55/20 34/42/20 40/27/20
f 42/55/21 41/56/21 33/43/21 34/42/21
f 23/15/22 22/13/22 30/32/22 31/35/22
f 41/56/23 43/57/23 35/46/23 33/43/23
f 21/9/24 20/7/24 28/24/24 29/58/24
f 43/57/25 44/38/25 36/41/25 35/46/25
f 41/56/17 42/55/17 44/59/17 43/57/17
f 4/60/1 2/61/1 50/62/1 49/63/1
f 2/61/8 16/64/8 56/65/8 50/62/8
f 14/66/6 12/67/6 54/68/6 55/69/6
f 10/70/4 8/17/4 52/20/4 53/71/4
f 6/72/2 4/60/2 49/63/2 51/73/2
f 16/64/7 14/74/7 55/75/7 56/65/7
f 12/76/5 10/70/5 53/71/5 54/77/5
f 61/78/4 60/79/4 68/80/4 69/81/4
f 66/82/26 72/83/26 80/84/26 74/85/26
f 59/86/2 57/87/2 65/88/2 67/89/2
f 64/90/7 63/91/7 71/92/7 72/83/7
f 62/93/5 61/78/5 69/81/5 70/94/5
f 60/79/3 59/95/3 67/96/3 68/80/3
f 57/87/1 58/97/1 66/82/1 65/88/1
f 58/97/8 64/90/8 72/83/8 66/82/8
f 63/91/6 62/93/6 70/94/6 71/92/6
f 73/98/17 74/99/17 80/100/17 79/101/17 75/102/17
f 71/92/27 70/94/27 78/103/27 79/104/27
f 69/81/28 68/80/28 76/105/28 77/106/28
f 67/89/29 65/88/29 73/107/29 75/108/29
f 72/83/30 71/92/30 79/104/30 80/84/30
f 70/94/31 69/81/31 77/106/31 78/103/31
f 68/80/32 67/96/32 75/109/32 76/105/32
f 65/88/33 66/82/33 74/85/33 73/107/33
f 86/110/34 87/111/34 103/112/34 102/113/34
f 85/114/35 86/110/35 102/113/35 101/115/35
f 84/116/36 85/114/36 101/115/36 100/117/36
f 83/118/37 84/116/37 100/117/37 99/119/37
f 81/120/17 82/121/17 84/116/17 83/118/17
f 96/122/7 95/123/7 103/124/7 104/125/7
f 94/126/5 93/127/5 101/128/5 102/129/5
f 92/130/3 91/131/3 99/132/3 100/133/3
f 89/134/1 90/135/1 98/136/1 97/137/1
f 90/135/8 96/122/8 104/125/8 98/136/8
f 95/123/6 94/126/6 102/129/6 103/124/6
f 93/138/4 92/130/4 100/133/4 101/139/4
f 91/131/2 89/134/2 97/137/2 99/132/2
f 90/140/38 94/141/38 95/142/38 96/143/38
f 87/111/39 88/144/39 104/145/39 103/112/39
f 93/146/38 94/141/38 90/140/38 89/147/38
f 88/144/40 82/121/40 98/148/40 104/145/40
f 82/121/41 81/120/41 97/149/41 98/148/41
f 89/147/38 91/150/38 92/151/38 93/146/38
f 81/120/42 83/118/42 99/119/42 97/149/42
f 82/121/17 88/144/17 85/114/17 84/116/17
f 88/144/17 87/111/17 86/110/17 85/114/17
f 44/59/17 42/55/17 48/26/17 45/152/17
f 45/152/17 48/26/17 47/25/17 46/29/17
f 75/102/17 79/101/17 78/153/17 77/154/17 76/155/17
