# Blender v2.79 (sub 0) OBJ File: 'Letreiro.blend'
# www.blender.org
mtllib Letreiro.mtl
o Cube_Cube.002
v 0.259353 6.954329 3.055281
v 0.339167 4.016804 3.055281
v -0.621105 7.364544 1.229843
v -0.140380 7.182227 2.042503
v -0.178272 3.991543 2.176025
v -0.861228 3.978417 1.096321
v 0.608974 7.182227 2.042503
v 1.791645 6.954329 3.055281
v 1.809303 4.033637 3.055281
v 0.128249 7.364544 1.229843
v 1.291864 4.008376 2.176025
v 0.608909 3.995251 1.096321
v -0.858088 7.394499 1.096321
v -0.219396 7.152272 2.176025
v 0.674206 7.394499 1.096321
v 1.312898 7.152272 2.176025
v 1.633595 9.396210 1.769283
v 1.787654 9.337783 2.029718
v 1.873742 9.396210 1.769283
v 2.027801 9.337783 2.029718
v 0.393523 5.827026 3.054871
v 0.412014 5.146476 3.054871
v 1.142689 5.831050 3.054871
v 1.146779 5.154529 3.054871
v 1.368564 5.638453 4.491456
v 1.376716 5.338426 4.491456
v 1.698841 5.640227 4.491456
v 1.700644 5.341976 4.491456
v -0.297913 3.980993 1.792615
v -0.297913 4.268469 1.792615
v -0.055332 3.980993 1.159638
v -0.055332 4.268469 1.159638
v 0.621625 3.980993 1.194745
v 0.621625 4.268469 1.194745
v 0.797427 3.980994 1.849421
v 0.797427 4.268469 1.849421
v 0.229121 3.980994 2.218923
v 0.229121 4.268469 2.218923
v -0.343212 3.713784 1.804777
v -0.080899 3.713784 1.120317
v 0.651124 3.713783 1.158279
v 0.841223 3.713784 1.866203
v 0.226691 3.713784 2.265762
v -0.412226 3.428720 1.823309
v -0.119852 3.428720 1.060408
v 0.696062 3.428720 1.102720
v 0.907949 3.428721 1.891777
v 0.222992 3.428720 2.337126
v -0.275118 3.416894 1.786493
v -0.042467 3.382249 1.179427
v 0.606783 3.382249 1.213098
v 0.775386 3.416893 1.840973
v 0.230343 3.416894 2.195353
v -0.275118 3.602043 1.786493
v -0.042467 3.522553 1.179427
v 0.606783 3.522553 1.213098
v 0.775386 3.602042 1.840973
v 0.230343 3.602043 2.195353
v -0.282387 3.302962 1.788446
v -0.046570 3.302962 1.173115
v 0.611514 3.302962 1.207244
v 0.782416 3.302962 1.843666
v 0.229953 3.302962 2.202870
v -0.171802 3.302962 1.758750
v 0.015846 3.302962 1.269113
v 0.539505 3.302962 1.296269
v 0.675495 3.302962 1.802691
v 0.235885 3.302962 2.088516
v 0.259353 6.954329 -3.574411
v 0.339167 4.016804 -3.574411
v -1.208647 7.499561 -0.259564
v -0.621105 7.364544 -1.762014
v -0.140381 7.182227 -2.574675
v -0.178273 3.991543 -2.695154
v -0.861228 3.978417 -1.615450
v -1.226696 3.997473 -0.259564
v 0.608974 7.182227 -2.574675
v 1.791645 6.954329 -3.574411
v 1.809303 4.033637 -3.574411
v 0.323647 7.499561 -0.259564
v 0.128249 7.364544 -1.762014
v 1.291864 4.008376 -2.695154
v 0.608909 3.995251 -1.615450
v 0.243442 4.014307 -0.259564
v -0.858088 7.394499 -1.615450
v -0.219396 7.152272 -2.695154
v 0.674206 7.394499 -1.615450
v 1.312897 7.152272 -2.695154
v 1.633595 9.396210 -2.301455
v 1.787654 9.337783 -2.561890
v 1.873742 9.396210 -2.301455
v 2.027801 9.337783 -2.561890
v 0.393522 5.827026 -3.554760
v 0.412013 5.146476 -3.554760
v 1.142689 5.831050 -3.554760
v 1.146779 5.154529 -3.554760
v 1.368564 5.638453 -4.991344
v 1.376716 5.338426 -4.991344
v 1.698841 5.640227 -4.991344
v 1.700644 5.341976 -4.991344
v 0.430943 3.301157 -1.692630
v 0.746041 3.301157 -2.111757
v 0.444798 3.301157 -2.540954
v -0.056479 3.301157 -2.387083
v -0.065043 3.301157 -1.862790
v 0.464543 3.301157 -1.583167
v 0.860530 3.301157 -2.109886
v 0.481956 3.301157 -2.649260
v -0.148003 3.301157 -2.455889
v -0.158764 3.301157 -1.797009
v 0.462333 3.600237 -1.590362
v 0.853005 3.600237 -2.110009
v 0.479514 3.600237 -2.642140
v -0.141986 3.600237 -2.451366
v -0.152605 3.600237 -1.801333
v 0.462333 3.415088 -1.590362
v 0.853005 3.415088 -2.110009
v 0.479514 3.415088 -2.642140
v -0.141986 3.415088 -2.451366
v -0.152605 3.415088 -1.801333
v 0.503991 3.426915 -1.454649
v 0.994952 3.426916 -2.107692
v 0.525582 3.426915 -2.776422
v -0.255459 3.426915 -2.536675
v -0.268804 3.426915 -1.719775
v 0.483023 3.711977 -1.522962
v 0.923500 3.711979 -2.108858
v 0.502394 3.711978 -2.708832
v -0.198341 3.711977 -2.493735
v -0.210314 3.711979 -1.760829
v 0.469259 4.266664 -1.567799
v 0.469259 3.979187 -1.567799
v 0.876603 4.266665 -2.109626
v 0.876603 3.979189 -2.109626
v 0.487172 4.266664 -2.664466
v 0.487172 3.979188 -2.664466
v -0.160852 4.266664 -2.465550
v -0.160852 3.979187 -2.465550
v -0.171923 4.266664 -1.787773
v -0.171923 3.979188 -1.787773
v -14.309937 2.375850 12.166499
v -14.309938 2.375850 13.218639
v -14.318636 2.375848 13.218639
v -14.318634 2.375850 12.166499
v -13.982141 2.502973 31.580109
vt 0.359218 0.619341
vt 0.455808 0.620821
vt 0.462245 0.653745
vt 0.358336 0.652878
vt 0.470144 0.694996
vt 0.357846 0.694875
vt 0.473538 0.741039
vt 0.358411 0.741039
vt 0.287781 0.869541
vt 0.288406 0.952527
vt 0.261925 0.947586
vt 0.260861 0.870497
vt 0.321499 0.868820
vt 0.321586 0.958564
vt 0.358568 0.869102
vt 0.358568 0.961123
vt 0.136802 0.273551
vt 0.152592 0.304732
vt 0.118298 0.302556
vt 0.102507 0.271374
vt 0.173597 0.343119
vt 0.139303 0.340942
vt 0.183135 0.390263
vt 0.148840 0.388086
vt 0.183135 0.390263
vt 0.168202 0.435986
vt 0.131788 0.433675
vt 0.146721 0.387952
vt 0.143971 0.472422
vt 0.125652 0.502189
vt 0.089238 0.499877
vt 0.107557 0.470111
vt 0.005181 0.040888
vt 0.013795 0.014632
vt 0.052984 0.100991
vt 0.053065 0.110385
vt 0.061887 0.103022
vt 0.067649 0.110433
vt 0.050925 0.014506
vt 0.072185 0.029178
vt 0.053531 0.231743
vt 0.008022 0.231592
vt 0.883007 0.826272
vt 0.794610 0.826272
vt 0.794415 0.794030
vt 0.883332 0.795908
vt 0.127460 0.109213
vt 0.115654 0.107741
vt 0.112775 0.092298
vt 0.131068 0.092162
vt 0.101347 0.172077
vt 0.078540 0.140245
vt 0.100905 0.014804
vt 0.142400 0.014495
vt 0.138179 0.174108
vt 0.163410 0.143642
vt 0.107698 0.403457
vt 0.098408 0.401945
vt 0.098969 0.368288
vt 0.108707 0.367080
vt 0.089832 0.334544
vt 0.099252 0.330541
vt 0.072024 0.304051
vt 0.080504 0.299099
vt 0.078793 0.462740
vt 0.072024 0.458176
vt 0.088805 0.432577
vt 0.096895 0.436418
vt 0.103413 0.439780
vt 0.083466 0.467522
vt 0.106969 0.327386
vt 0.116653 0.366281
vt 0.115239 0.404880
vt 0.086428 0.293847
vt 0.123727 0.406569
vt 0.110665 0.443633
vt 0.092910 0.287275
vt 0.115377 0.323838
vt 0.125764 0.365344
vt 0.088549 0.473581
vt 0.220958 0.457143
vt 0.236552 0.418592
vt 0.241302 0.425198
vt 0.228894 0.455553
vt 0.339086 0.527693
vt 0.314400 0.547986
vt 0.311723 0.541963
vt 0.333346 0.523428
vt 0.278022 0.417111
vt 0.273939 0.424127
vt 0.349767 0.500013
vt 0.344281 0.499258
vt 0.249991 0.487657
vt 0.252210 0.479923
vt 0.346245 0.473154
vt 0.351093 0.470999
vt 0.355585 0.500482
vt 0.344385 0.531194
vt 0.317535 0.554075
vt 0.328055 0.448821
vt 0.332528 0.445557
vt 0.278892 0.554124
vt 0.280250 0.561644
vt 0.270996 0.428913
vt 0.244482 0.429850
vt 0.234494 0.454516
vt 0.253289 0.473958
vt 0.288159 0.453396
vt 0.282636 0.452675
vt 0.266777 0.478799
vt 0.265379 0.473126
vt 0.340570 0.475441
vt 0.296265 0.454282
vt 0.325256 0.454732
vt 0.269549 0.486508
vt 0.281446 0.546770
vt 0.359218 0.862737
vt 0.358336 0.829200
vt 0.462245 0.828332
vt 0.455808 0.861257
vt 0.357846 0.787203
vt 0.470144 0.787081
vt 0.429355 0.869541
vt 0.456276 0.870497
vt 0.455211 0.947586
vt 0.428730 0.952527
vt 0.395638 0.868820
vt 0.395550 0.958564
vt 0.122417 0.500181
vt 0.088123 0.498004
vt 0.107729 0.469069
vt 0.142023 0.471246
vt 0.133419 0.433647
vt 0.167714 0.435823
vt 0.137689 0.340708
vt 0.174103 0.343019
vt 0.154673 0.303812
vt 0.118259 0.301501
vt 0.103850 0.269657
vt 0.140264 0.271968
vt 0.004702 0.040644
vt 0.053050 0.109819
vt 0.052907 0.100425
vt 0.013141 0.014331
vt 0.067635 0.109770
vt 0.061823 0.102397
vt 0.050268 0.013957
vt 0.071627 0.028485
vt 0.054329 0.231171
vt 0.008819 0.231324
vt 0.882807 0.794978
vt 0.882807 0.825345
vt 0.793874 0.826268
vt 0.794415 0.794030
vt 0.115654 0.107741
vt 0.112775 0.092298
vt 0.131068 0.092162
vt 0.127460 0.109213
vt 0.138179 0.174108
vt 0.163410 0.143642
vt 0.142400 0.014495
vt 0.099829 0.014407
vt 0.101347 0.172077
vt 0.078540 0.140245
vt 0.370604 0.553270
vt 0.388166 0.502048
vt 0.397992 0.534038
vt 0.343850 0.533165
vt 0.354704 0.501508
vt 0.315772 0.549602
vt 0.282334 0.555940
vt 0.284637 0.548958
vt 0.313157 0.543967
vt 0.295843 0.454644
vt 0.269166 0.485249
vt 0.266704 0.477895
vt 0.288050 0.453465
vt 0.326632 0.450597
vt 0.344252 0.473214
vt 0.339140 0.475393
vt 0.324145 0.456249
vt 0.278916 0.417441
vt 0.274530 0.424368
vt 0.348688 0.501210
vt 0.341907 0.500500
vt 0.265439 0.472333
vt 0.282636 0.452675
vt 0.228676 0.454939
vt 0.241867 0.424459
vt 0.244980 0.429230
vt 0.234382 0.454026
vt 0.271520 0.429040
vt 0.251756 0.480640
vt 0.253052 0.474556
vt 0.318828 0.555310
vt 0.283727 0.563022
vt 0.338511 0.529927
vt 0.330786 0.447384
vt 0.349064 0.471016
vt 0.249234 0.488511
vt 0.220390 0.456265
vt 0.333209 0.526169
vt 0.237415 0.417729
vt 0.117198 0.367052
vt 0.107457 0.328023
vt 0.116125 0.324521
vt 0.126163 0.366249
vt 0.083471 0.467383
vt 0.103709 0.440009
vt 0.110889 0.443773
vt 0.088549 0.473581
vt 0.115565 0.405399
vt 0.123969 0.407100
vt 0.086866 0.293957
vt 0.093473 0.287313
vt 0.099685 0.331177
vt 0.080841 0.299260
vt 0.108093 0.403955
vt 0.109248 0.367835
vt 0.097246 0.436617
vt 0.078891 0.462563
vt 0.089229 0.432741
vt 0.098881 0.402436
vt 0.072230 0.457938
vt 0.090198 0.335221
vt 0.072230 0.304257
vt 0.099519 0.369062
vt 0.388254 0.501643
vt 0.370133 0.551336
vt 0.397245 0.533072
vn -0.8707 -0.0173 0.4915
vn -0.8532 -0.0049 0.5216
vn -0.9668 0.0030 0.2554
vn 0.8701 -0.0005 -0.4929
vn 0.8523 -0.0112 -0.5229
vn 0.9664 -0.0204 -0.2561
vn 0.0114 -0.9997 0.0220
vn 0.0114 -0.9999 0.0049
vn 0.0114 -0.9998 -0.0171
vn 0.0000 0.9970 0.0773
vn 0.0000 0.9756 0.2196
vn 0.0000 0.2566 -0.9665
vn 0.0000 0.9757 0.2189
vn 0.0000 0.0059 1.0000
vn 0.7094 -0.4701 -0.5251
vn -0.6405 0.5759 0.5081
vn 0.0000 0.0000 1.0000
vn 0.0109 -0.9921 0.1253
vn 0.9328 0.0056 -0.3604
vn -0.8286 -0.0225 0.5594
vn -0.0053 0.9910 0.1337
vn -0.9338 0.0000 -0.3579
vn 0.0518 0.0000 -0.9987
vn 0.9658 0.0000 -0.2593
vn 0.5451 0.0000 0.8384
vn -0.6289 0.0000 0.7775
vn 0.5397 0.1406 0.8300
vn 0.0513 0.1406 -0.9887
vn -0.6227 0.1406 0.7698
vn -0.9245 0.1406 -0.3543
vn 0.9562 0.1406 -0.2568
vn -0.6164 0.1988 0.7620
vn 0.9465 0.1988 -0.2542
vn -0.9151 0.1988 -0.3507
vn 0.5342 0.1988 0.8216
vn 0.0508 0.1988 -0.9787
vn -0.4757 -0.6541 0.5881
vn 0.5008 0.6049 -0.6191
vn -0.7063 -0.6541 -0.2707
vn 0.7024 0.6671 0.2481
vn 0.4123 -0.6541 0.6341
vn -0.0518 0.0000 0.9987
vn 0.6289 0.0000 -0.7775
vn -0.9658 0.0000 0.2593
vn 0.9338 0.0000 0.3579
vn -0.5451 0.0000 -0.8384
vn 0.0000 -1.0000 0.0000
vn -0.0350 0.7373 0.6746
vn 0.0392 -0.6541 -0.7554
vn -0.7243 0.6671 0.1741
vn 0.7305 -0.6541 -0.1962
vn -0.4341 0.6049 -0.6676
vn -0.8707 -0.0173 -0.4915
vn -0.8532 -0.0049 -0.5216
vn -0.9668 0.0030 -0.2554
vn 0.8701 -0.0005 0.4929
vn 0.8523 -0.0112 0.5229
vn 0.9664 -0.0204 0.2561
vn 0.0114 -0.9997 -0.0220
vn 0.0114 -0.9999 -0.0049
vn 0.0114 -0.9998 0.0171
vn 0.0000 0.9970 -0.0773
vn 0.0000 0.9756 -0.2196
vn 0.0000 0.2566 0.9665
vn 0.0000 0.9757 -0.2189
vn 0.0000 0.0059 -1.0000
vn 0.7094 -0.4701 0.5251
vn -0.6405 0.5759 -0.5081
vn 0.0000 0.0000 -1.0000
vn 0.0109 -0.9921 -0.1253
vn 0.9328 0.0056 0.3604
vn -0.8286 -0.0225 -0.5594
vn -0.0053 0.9910 -0.1337
vn -0.6365 0.6049 -0.4785
vn 0.6191 -0.6541 -0.4345
vn -0.6518 0.6049 0.4575
vn -0.2220 -0.6541 -0.7231
vn 0.2337 0.6049 0.7613
vn -0.7993 0.0000 -0.6009
vn 0.9999 0.0000 0.0163
vn -0.8185 0.0000 0.5745
vn 0.3245 0.0000 -0.9459
vn 0.2934 0.0000 0.9560
vn 0.6046 -0.6541 0.4545
vn 0.7962 0.6049 0.0130
vn -0.7563 -0.6541 -0.0124
vn 0.2584 0.6049 -0.7532
vn -0.2454 -0.6541 0.7154
vn -0.2876 0.1988 -0.9369
vn 0.7834 0.1988 0.5889
vn -0.9799 0.1988 -0.0160
vn 0.8022 0.1988 -0.5630
vn -0.3180 0.1988 0.9270
vn 0.8104 0.1406 -0.5688
vn -0.9899 0.1406 -0.0162
vn -0.3213 0.1406 0.9365
vn -0.2905 0.1406 -0.9465
vn 0.7914 0.1406 0.5950
vn -0.3245 0.0000 0.9459
vn 0.7993 0.0000 0.6009
vn 0.8185 0.0000 -0.5745
vn -0.2934 0.0000 -0.9560
vn -0.0333 -0.9957 0.0868
vn -0.9999 0.0000 -0.0163
vn 0.0695 -0.9918 0.1069
usemtl Material
s off
f 2/1/1 1/2/1 14/3/1 5/4/1
f 5/4/2 14/3/2 13/5/2 6/6/2
f 6/6/3 13/5/3 71/7/3 76/8/3
f 11/9/4 16/10/4 8/11/4 9/12/4
f 12/13/5 15/14/5 16/10/5 11/9/5
f 84/15/6 80/16/6 15/14/6 12/13/6
f 2/17/7 5/18/7 11/19/7 9/20/7
f 5/18/8 6/21/8 12/22/8 11/19/8
f 6/21/9 76/23/9 84/24/9 12/22/9
f 71/25/10 13/26/10 15/27/10 80/28/10
f 14/29/11 1/30/11 8/31/11 16/32/11
f 10/33/12 3/34/12 17/35/12 19/36/12
f 14/29/13 16/32/13 15/27/13 13/26/13
f 17/35/13 18/37/13 20/38/13 19/36/13
f 4/39/14 7/40/14 20/38/14 18/37/14
f 7/41/15 10/42/15 19/36/15 20/38/15
f 3/34/16 4/39/16 18/37/16 17/35/16
f 9/43/17 8/44/17 1/45/17 2/46/17
f 25/47/17 26/48/17 28/49/17 27/50/17
f 22/51/18 24/52/18 28/49/18 26/48/18
f 24/53/19 23/54/19 27/50/19 28/49/19
f 21/55/20 22/51/20 26/48/20 25/47/20
f 23/56/21 21/55/21 25/47/21 27/50/21
f 29/57/22 30/58/22 32/59/22 31/60/22
f 31/60/23 32/59/23 34/61/23 33/62/23
f 33/62/24 34/61/24 36/63/24 35/64/24
f 35/65/25 36/66/25 38/67/25 37/68/25
f 37/68/26 38/67/26 30/58/26 29/57/26
f 35/65/27 37/68/27 43/69/27 42/70/27
f 31/60/28 33/62/28 41/71/28 40/72/28
f 37/68/29 29/57/29 39/73/29 43/69/29
f 29/57/30 31/60/30 40/72/30 39/73/30
f 33/62/31 35/64/31 42/74/31 41/71/31
f 43/69/32 39/73/32 44/75/32 48/76/32
f 41/71/33 42/74/33 47/77/33 46/78/33
f 39/73/34 40/72/34 45/79/34 44/75/34
f 42/70/35 43/69/35 48/76/35 47/80/35
f 40/72/36 41/71/36 46/78/36 45/79/36
f 48/81/37 44/82/37 59/83/37 63/84/37
f 49/85/38 53/86/38 68/87/38 64/88/38
f 44/82/39 45/89/39 60/90/39 59/83/39
f 50/91/40 49/85/40 64/88/40 65/92/40
f 47/93/41 48/81/41 63/84/41 62/94/41
f 50/91/42 51/95/42 56/96/42 55/97/42
f 53/86/43 49/85/43 54/98/43 58/99/43
f 51/95/44 52/100/44 57/101/44 56/96/44
f 49/85/45 50/91/45 55/97/45 54/98/45
f 52/102/46 53/86/46 58/99/46 57/103/46
f 59/83/47 60/90/47 65/104/47 64/105/47
f 62/94/47 63/84/47 68/106/47 67/107/47
f 60/90/47 61/108/47 66/109/47 65/104/47
f 63/84/47 59/83/47 64/105/47 68/106/47
f 61/108/47 62/110/47 67/111/47 66/109/47
f 51/95/48 50/91/48 65/92/48 66/112/48
f 45/89/49 46/113/49 61/108/49 60/90/49
f 52/100/50 51/95/50 66/112/50 67/114/50
f 46/113/51 47/115/51 62/110/51 61/108/51
f 53/86/52 52/102/52 67/116/52 68/87/52
f 70/117/53 74/118/53 86/119/53 69/120/53
f 74/118/54 75/121/54 85/122/54 86/119/54
f 75/121/55 76/8/55 71/7/55 85/122/55
f 82/123/56 79/124/56 78/125/56 88/126/56
f 83/127/57 82/123/57 88/126/57 87/128/57
f 84/15/58 83/127/58 87/128/58 80/16/58
f 70/129/59 79/130/59 82/131/59 74/132/59
f 74/132/60 82/131/60 83/133/60 75/134/60
f 75/134/61 83/133/61 84/24/61 76/23/61
f 71/25/62 80/28/62 87/135/62 85/136/62
f 86/137/63 88/138/63 78/139/63 69/140/63
f 81/141/64 91/142/64 89/143/64 72/144/64
f 86/137/65 85/136/65 87/135/65 88/138/65
f 89/143/65 91/142/65 92/145/65 90/146/65
f 73/147/66 90/146/66 92/145/66 77/148/66
f 77/149/67 92/145/67 91/142/67 81/150/67
f 72/144/68 89/143/68 90/146/68 73/147/68
f 79/151/69 70/152/69 69/153/69 78/154/69
f 97/155/69 99/156/69 100/157/69 98/158/69
f 94/159/70 98/158/70 100/157/70 96/160/70
f 96/161/71 100/157/71 99/156/71 95/162/71
f 93/163/72 97/155/72 98/158/72 94/159/72
f 95/164/73 99/156/73 97/155/73 93/163/73
f 111/165/47 113/166/47 112/167/47
f 115/168/47 114/169/47 113/166/47 111/165/47
f 116/170/74 117/171/74 102/172/74 101/173/74
f 123/174/75 122/175/75 107/176/75 108/177/75
f 117/178/76 118/179/76 103/180/76 102/181/76
f 124/182/77 123/174/77 108/177/77 109/183/77
f 118/179/78 119/184/78 104/185/78 103/180/78
f 108/177/47 107/176/47 102/186/47 103/187/47
f 106/188/47 110/189/47 105/190/47 101/191/47
f 109/183/47 108/177/47 103/187/47 104/192/47
f 107/193/47 106/188/47 101/191/47 102/194/47
f 110/189/47 109/183/47 104/192/47 105/190/47
f 117/171/79 116/170/79 111/195/79 112/196/79
f 120/197/80 119/184/80 114/169/80 115/168/80
f 118/179/81 117/178/81 112/198/81 113/199/81
f 116/170/82 120/197/82 115/168/82 111/195/82
f 119/184/83 118/179/83 113/199/83 114/169/83
f 122/200/84 121/201/84 106/188/84 107/193/84
f 119/184/85 120/197/85 105/202/85 104/185/85
f 125/203/86 124/182/86 109/183/86 110/189/86
f 120/197/87 116/170/87 101/173/87 105/202/87
f 121/201/88 125/203/88 110/189/88 106/188/88
f 129/204/89 128/205/89 123/206/89 124/207/89
f 127/208/90 126/209/90 121/210/90 122/211/90
f 130/212/91 129/204/91 124/207/91 125/213/91
f 128/205/92 127/214/92 122/215/92 123/206/92
f 126/209/93 130/212/93 125/213/93 121/210/93
f 136/216/94 134/217/94 127/214/94 128/205/94
f 140/218/95 138/219/95 129/204/95 130/212/95
f 132/220/96 140/218/96 130/212/96 126/209/96
f 138/219/97 136/216/97 128/205/97 129/204/97
f 134/221/98 132/220/98 126/209/98 127/208/98
f 132/220/99 131/222/99 139/223/99 140/218/99
f 134/221/100 133/224/100 131/222/100 132/220/100
f 136/216/101 135/225/101 133/226/101 134/217/101
f 138/219/102 137/227/102 135/225/102 136/216/102
f 54/98/103 55/97/103 56/228/103 58/229/103
f 140/218/104 139/223/104 137/227/104 138/219/104
f 58/229/105 56/228/105 57/230/105
l 143 142
l 141 144
