# Blender v2.79 (sub 0) OBJ File: 'Praça.blend'
# www.blender.org
mtllib lixo.mtl
o Cube.001
v -24.186094 0.283694 -3.723420
v -3.468136 1.591333 1.287459
v -3.403221 1.591333 1.287459
v -2.858140 0.078707 1.335562
v -2.858140 0.078707 1.227111
v -4.013218 0.078707 1.227111
v -4.013218 0.078707 1.335562
v -2.858140 -0.023884 1.335562
v -2.858140 -0.023884 1.227111
v -4.013218 -0.023884 1.227111
v -4.013218 -0.023884 1.335562
v -3.468136 1.591333 -2.167193
v -3.403221 1.591333 -2.167193
v -3.466872 0.044577 -2.170136
v -3.404484 0.044577 -2.170136
v -3.404484 0.044577 -2.107748
v -3.466872 0.044577 -2.107748
v -3.485317 0.162846 -2.089303
v -3.485317 1.789632 -2.089303
v -3.485317 0.162846 -2.188581
v -3.485317 1.789632 -2.188581
v -3.386039 0.162846 -2.089303
v -3.386038 1.789632 -2.089303
v -3.386039 0.162846 -2.188581
v -3.386038 1.789632 -2.188581
v -4.013218 -0.023884 -2.084446
v -4.013218 -0.023884 -2.192897
v -2.858140 -0.023884 -2.192897
v -2.858140 -0.023884 -2.084446
v -4.013218 0.078707 -2.084446
v -4.013218 0.078707 -2.192897
v -3.403221 1.439233 1.287459
v -3.468136 1.439233 1.287459
v -3.468136 1.439233 -2.167193
v -3.403221 1.439233 -2.167193
v -2.858140 0.078707 -2.192897
v -2.858140 0.078707 -2.084446
v -3.703453 1.687770 0.423205
v -3.608107 1.087305 0.518552
v -3.703453 1.687770 1.023671
v -3.102987 1.687770 0.423205
v -3.198334 1.087305 0.518552
v -3.608107 1.087305 0.928324
v -3.198334 1.087305 0.928324
v -3.102987 1.687770 1.023671
v -3.079950 1.685684 0.246709
v -3.726490 1.685684 0.246709
v -3.079950 1.685684 -0.399833
v -3.726490 1.685684 -0.399833
v -3.175360 1.878281 0.107712
v -3.607130 1.905714 0.127348
v -3.175360 1.878281 -0.260836
v -3.607130 1.905714 -0.280473
v -3.128443 1.821247 0.156261
v -3.669153 1.834674 0.189370
v -3.128443 1.821247 -0.309385
v -3.669153 1.834674 -0.342495
v -3.102987 1.742165 0.223671
v -3.703453 1.742165 0.223671
v -3.102987 1.742165 -0.376795
v -3.703453 1.742165 -0.376795
v -3.102987 1.687770 0.223671
v -3.198334 1.087305 0.128324
v -3.608107 1.087305 0.128324
v -3.198334 1.087305 -0.281449
v -3.102987 1.687770 -0.376795
v -3.703453 1.687770 0.223671
v -3.608107 1.087305 -0.281449
v -3.703453 1.687770 -0.376795
v -3.703453 1.742165 0.423205
v -3.102987 1.742165 0.423205
v -3.703453 1.742165 1.023671
v -3.102987 1.742165 1.023671
v -3.669153 1.834674 0.457505
v -3.128443 1.821247 0.490615
v -3.669153 1.834674 0.989371
v -3.128443 1.821247 0.956261
v -3.607130 1.905714 0.519528
v -3.175360 1.878281 0.539164
v -3.607130 1.905714 0.927348
v -3.175360 1.878281 0.907712
v -3.726490 1.685684 0.400167
v -3.079950 1.685684 0.400167
v -3.726490 1.685684 1.046709
v -3.079950 1.685684 1.046709
v -3.726490 1.744252 0.400167
v -3.079950 1.744252 0.400167
v -3.726490 1.744252 1.046709
v -3.079950 1.744252 1.046709
v -3.137287 1.834674 0.989371
v -3.115648 1.776311 0.474421
v -3.115648 1.776311 0.972455
v -3.137287 1.834674 0.457505
v -3.199310 1.905714 0.519528
v -3.199310 1.905714 0.927348
v -3.218489 1.749318 0.474421
v -3.218489 1.749318 0.972455
v -3.234549 1.793193 0.490615
v -3.234549 1.793193 0.956261
v -3.285528 1.846625 0.539164
v -3.285528 1.846625 0.907712
v -3.726490 1.744252 -0.399833
v -3.079950 1.744252 -0.399833
v -3.726490 1.744252 0.246709
v -3.079950 1.744252 0.246709
v -3.137287 1.834674 0.189370
v -3.115648 1.776311 -0.325579
v -3.115648 1.776311 0.172455
v -3.137287 1.834674 -0.342495
v -3.199310 1.905714 -0.280473
v -3.199310 1.905714 0.127348
v -3.218489 1.749318 -0.325579
v -3.218489 1.749318 0.172455
v -3.234549 1.793193 -0.309385
v -3.234549 1.793193 0.156261
v -3.285528 1.846625 -0.260836
v -3.285528 1.846625 0.107712
v -3.079950 1.685684 -0.553292
v -3.726490 1.685684 -0.553292
v -3.079950 1.685684 -1.199833
v -3.726490 1.685684 -1.199833
v -3.175360 1.878281 -0.692289
v -3.607130 1.905714 -0.672652
v -3.175360 1.878281 -1.060836
v -3.607130 1.905714 -1.080473
v -3.128443 1.821247 -0.643739
v -3.669153 1.834674 -0.610630
v -3.128443 1.821247 -1.109385
v -3.669153 1.834674 -1.142495
v -3.102987 1.742165 -0.576329
v -3.703453 1.742165 -0.576329
v -3.102987 1.742165 -1.176795
v -3.703453 1.742165 -1.176795
v -3.102987 1.687770 -0.576329
v -3.198334 1.087305 -0.671676
v -3.608107 1.087305 -0.671676
v -3.198334 1.087305 -1.081449
v -3.102987 1.687770 -1.176795
v -3.703453 1.687770 -0.576329
v -3.608107 1.087305 -1.081449
v -3.703453 1.687770 -1.176795
v -3.726490 1.744252 -1.199833
v -3.079950 1.744252 -1.199833
v -3.726490 1.744252 -0.553292
v -3.079950 1.744252 -0.553292
v -3.137287 1.834674 -0.610630
v -3.115648 1.776311 -1.125580
v -3.115648 1.776311 -0.627545
v -3.137287 1.834674 -1.142495
v -3.199310 1.905714 -1.080473
v -3.199310 1.905714 -0.672652
v -3.218489 1.749318 -1.125580
v -3.218489 1.749318 -0.627545
v -3.234549 1.793193 -1.109385
v -3.234549 1.793193 -0.643739
v -3.285528 1.846625 -1.060836
v -3.285528 1.846625 -0.692289
v -3.079950 1.685684 -1.353292
v -3.726490 1.685684 -1.353292
v -3.079950 1.685684 -1.999833
v -3.726490 1.685684 -1.999833
v -3.175360 1.878281 -1.492289
v -3.607130 1.905714 -1.472652
v -3.175360 1.878281 -1.860836
v -3.607130 1.905714 -1.880473
v -3.128443 1.821247 -1.443740
v -3.669153 1.834674 -1.410630
v -3.128443 1.821247 -1.909386
v -3.669153 1.834674 -1.942495
v -3.102987 1.742165 -1.376330
v -3.703453 1.742165 -1.376330
v -3.102987 1.742165 -1.976795
v -3.703453 1.742165 -1.976795
v -3.102987 1.687770 -1.376330
v -3.198334 1.087305 -1.471676
v -3.608107 1.087305 -1.471676
v -3.198334 1.087305 -1.881449
v -3.102987 1.687770 -1.976795
v -3.703453 1.687770 -1.376330
v -3.608107 1.087305 -1.881449
v -3.703453 1.687770 -1.976795
v -3.726490 1.744252 -1.999833
v -3.079950 1.744252 -1.999833
v -3.726490 1.744252 -1.353292
v -3.079950 1.744252 -1.353292
v -3.137287 1.834674 -1.410630
v -3.115648 1.776311 -1.925580
v -3.115648 1.776311 -1.427545
v -3.137287 1.834674 -1.942495
v -3.199310 1.905714 -1.880473
v -3.199310 1.905714 -1.472652
v -3.218489 1.749318 -1.925580
v -3.218489 1.749318 -1.427545
v -3.234549 1.793193 -1.909386
v -3.234549 1.793193 -1.443740
v -3.285528 1.846625 -1.860836
v -3.285528 1.846625 -1.492289
v -3.386038 1.789632 1.231426
v -3.386039 0.162846 1.231426
v -3.386038 1.789632 1.330704
v -3.386039 0.162846 1.330704
v -3.485317 1.789632 1.231426
v -3.485317 0.162846 1.231426
v -3.485317 1.789632 1.330704
v -3.485317 0.162846 1.330704
v -3.466872 0.044577 1.312259
v -3.404484 0.044577 1.312259
v -3.404484 0.044577 1.249871
v -3.466872 0.044577 1.249871
vt 0.580414 0.925515
vt 0.580414 0.898580
vt 0.582854 0.898580
vt 0.582854 0.925515
vt 0.017985 0.472655
vt 0.017985 0.573416
vt 0.009036 0.573416
vt 0.009036 0.472655
vt 0.027445 0.573416
vt 0.027445 0.582365
vt 0.017985 0.582365
vt 0.027445 0.472655
vt 0.017985 0.463706
vt 0.027445 0.463706
vt 0.036394 0.472655
vt 0.036394 0.573416
vt 0.580414 0.952451
vt 0.582854 0.952451
vt 0.369437 0.411361
vt 0.359247 0.409909
vt 0.363896 0.397465
vt 0.370595 0.398855
vt 0.389497 0.409779
vt 0.379271 0.411319
vt 0.377618 0.398619
vt 0.384514 0.396870
vt 0.369096 0.762571
vt 0.379771 0.762571
vt 0.377788 0.775442
vt 0.371080 0.775442
vt 0.369096 0.587645
vt 0.379772 0.587645
vt 0.390452 0.576931
vt 0.379772 0.576969
vt 0.369096 0.576969
vt 0.358902 0.576948
vt 0.036394 0.472656
vt 0.036395 0.573416
vt 0.027445 0.573416
vt 0.027445 0.472656
vt 0.017985 0.573416
vt 0.017985 0.472656
vt 0.017985 0.463706
vt 0.027445 0.463706
vt 0.027445 0.582365
vt 0.017985 0.582365
vt 0.009036 0.573416
vt 0.009036 0.472656
vt 0.100784 0.573042
vt 0.100784 0.545610
vt 0.128216 0.545610
vt 0.128216 0.573042
vt 0.134599 0.504909
vt 0.172866 0.517215
vt 0.154331 0.554008
vt 0.094401 0.504909
vt 0.074669 0.554008
vt 0.056133 0.517215
vt 0.134599 0.613743
vt 0.094401 0.613743
vt 0.344816 0.564397
vt 0.344816 0.643383
vt 0.337661 0.643383
vt 0.337661 0.564397
vt 0.373010 0.422438
vt 0.375714 0.422438
vt 0.375714 0.566361
vt 0.373010 0.566361
vt 0.580414 0.979386
vt 0.582854 0.979386
vt 0.366673 0.422438
vt 0.366673 0.566361
vt 0.733309 0.385536
vt 0.733958 0.343287
vt 0.741548 0.349841
vt 0.740884 0.379075
vt 0.673577 0.899363
vt 0.675637 0.899403
vt 0.675629 0.903975
vt 0.673577 0.903792
vt 0.382051 0.566361
vt 0.382051 0.422438
vt 0.376657 0.558747
vt 0.373953 0.558747
vt 0.373954 0.414812
vt 0.376657 0.414812
vt 0.777291 0.395186
vt 0.773031 0.385775
vt 0.774346 0.346353
vt 0.679086 0.900691
vt 0.678996 0.905465
vt 0.780231 0.405116
vt 0.724793 0.393163
vt 0.724793 0.336068
vt 0.782525 0.327000
vt 0.779018 0.337376
vt 0.128216 0.573042
vt 0.134599 0.613743
vt 0.094401 0.613743
vt 0.100784 0.573042
vt 0.074669 0.554008
vt 0.056133 0.517215
vt 0.094401 0.504909
vt 0.100784 0.545610
vt 0.134599 0.504909
vt 0.128216 0.545610
vt 0.172866 0.517215
vt 0.154330 0.554008
vt 0.724793 0.393163
vt 0.724793 0.336068
vt 0.733958 0.343287
vt 0.733309 0.385536
vt 0.779018 0.337376
vt 0.774346 0.346353
vt 0.741548 0.349841
vt 0.782525 0.327000
vt 0.780231 0.405116
vt 0.777291 0.395186
vt 0.709292 0.899403
vt 0.712741 0.900691
vt 0.712651 0.905465
vt 0.709284 0.903975
vt 0.773031 0.385776
vt 0.740884 0.379075
vt 0.707232 0.899363
vt 0.707232 0.903792
vt 0.580414 0.979386
vt 0.580414 0.952451
vt 0.582854 0.952451
vt 0.582854 0.979386
vt 0.849770 0.995901
vt 0.822835 0.995901
vt 0.822835 0.993461
vt 0.849770 0.993461
vt 0.580414 0.925515
vt 0.582854 0.925515
vt 0.580414 0.898580
vt 0.582854 0.898580
vt 0.609790 0.925515
vt 0.609790 0.952451
vt 0.553479 0.925515
vt 0.553479 0.952451
vt 0.405600 0.375749
vt 0.316524 0.375925
vt 0.307551 0.369247
vt 0.414164 0.369451
vt 0.784530 0.333921
vt 0.782278 0.338899
vt 0.780582 0.393875
vt 0.782430 0.398752
vt 0.778096 0.347336
vt 0.777034 0.385066
vt 0.478088 0.256758
vt 0.549359 0.281429
vt 0.544726 0.287313
vt 0.478090 0.264246
vt 0.534120 0.295476
vt 0.481380 0.277220
vt 0.237928 0.738873
vt 0.168420 0.738873
vt 0.168420 0.717254
vt 0.237928 0.717254
vt 0.684424 0.899403
vt 0.686484 0.899363
vt 0.686484 0.903792
vt 0.684432 0.903975
vt 0.680975 0.900691
vt 0.681065 0.905465
vt 0.609790 0.925515
vt 0.609790 0.952451
vt 0.553479 0.925515
vt 0.553479 0.952451
vt 0.405600 0.375749
vt 0.316694 0.375748
vt 0.307551 0.369247
vt 0.414743 0.369247
vt 0.784530 0.333921
vt 0.782278 0.338899
vt 0.780582 0.393875
vt 0.782430 0.398751
vt 0.778096 0.347336
vt 0.777034 0.385066
vt 0.488800 0.262582
vt 0.530613 0.276761
vt 0.527923 0.280223
vt 0.488829 0.266965
vt 0.521745 0.285041
vt 0.490803 0.274548
vt 0.994476 0.946582
vt 0.994476 0.979255
vt 0.984314 0.979255
vt 0.984314 0.946582
vt 0.650769 0.899403
vt 0.652829 0.899363
vt 0.652829 0.903792
vt 0.650777 0.903975
vt 0.647320 0.900691
vt 0.647410 0.905465
vt 0.580414 0.925515
vt 0.580414 0.898580
vt 0.582854 0.898580
vt 0.582854 0.925515
vt 0.580414 0.952451
vt 0.582854 0.952451
vt 0.849770 0.995901
vt 0.822835 0.995901
vt 0.822835 0.993461
vt 0.849770 0.993461
vt 0.580414 0.979386
vt 0.582854 0.979386
vt 0.733309 0.385535
vt 0.733958 0.343287
vt 0.741548 0.349841
vt 0.740884 0.379075
vt 0.740887 0.899363
vt 0.742946 0.899403
vt 0.742939 0.903975
vt 0.740887 0.903792
vt 0.777291 0.395186
vt 0.773031 0.385776
vt 0.774346 0.346353
vt 0.746396 0.900691
vt 0.746305 0.905465
vt 0.780230 0.405116
vt 0.724793 0.393163
vt 0.724793 0.336068
vt 0.782525 0.327000
vt 0.779018 0.337376
vt 0.128216 0.573042
vt 0.134599 0.613743
vt 0.094401 0.613743
vt 0.100784 0.573042
vt 0.074669 0.554008
vt 0.056133 0.517215
vt 0.094401 0.504909
vt 0.100784 0.545610
vt 0.134599 0.504909
vt 0.128216 0.545610
vt 0.172867 0.517215
vt 0.154331 0.554008
vt 0.609790 0.925515
vt 0.609790 0.952451
vt 0.553479 0.925515
vt 0.553479 0.952451
vt 0.405059 0.375925
vt 0.316524 0.375925
vt 0.307419 0.369451
vt 0.414164 0.369451
vt 0.784530 0.333921
vt 0.782278 0.338899
vt 0.780582 0.393875
vt 0.782430 0.398752
vt 0.778096 0.347336
vt 0.777034 0.385066
vt 0.478088 0.256758
vt 0.549359 0.281429
vt 0.544726 0.287313
vt 0.478091 0.264246
vt 0.534121 0.295476
vt 0.481380 0.277220
vt 0.237928 0.738873
vt 0.168420 0.738873
vt 0.168420 0.717254
vt 0.237928 0.717255
vt 0.718079 0.899403
vt 0.720138 0.899363
vt 0.720138 0.903792
vt 0.718086 0.903975
vt 0.714629 0.900691
vt 0.714720 0.905465
vt 0.580414 0.925516
vt 0.580414 0.898580
vt 0.582854 0.898580
vt 0.582854 0.925515
vt 0.580414 0.952451
vt 0.582854 0.952451
vt 0.849770 0.995901
vt 0.822835 0.995901
vt 0.822835 0.993461
vt 0.849770 0.993461
vt 0.580414 0.979386
vt 0.582854 0.979386
vt 0.733312 0.385539
vt 0.733975 0.343291
vt 0.741563 0.349847
vt 0.740889 0.379081
vt 0.639923 0.899363
vt 0.641982 0.899403
vt 0.641975 0.903975
vt 0.639923 0.903792
vt 0.777290 0.395204
vt 0.773033 0.385792
vt 0.774362 0.346370
vt 0.645432 0.900691
vt 0.645341 0.905465
vt 0.780226 0.405135
vt 0.724793 0.393163
vt 0.724813 0.336068
vt 0.782548 0.327020
vt 0.779038 0.337395
vt 0.126911 0.573980
vt 0.133184 0.613978
vt 0.093681 0.613978
vt 0.099953 0.573980
vt 0.074290 0.555275
vt 0.056074 0.519118
vt 0.093681 0.507025
vt 0.099953 0.547023
vt 0.133184 0.507025
vt 0.126911 0.547023
vt 0.170790 0.519118
vt 0.152575 0.555275
vt 0.609790 0.925515
vt 0.609790 0.952451
vt 0.553479 0.925515
vt 0.553479 0.952451
vt 0.966862 0.955260
vt 0.946114 0.955260
vt 0.943980 0.953743
vt 0.968996 0.953743
vt 0.784550 0.333942
vt 0.782296 0.338919
vt 0.780582 0.393895
vt 0.782428 0.398772
vt 0.778112 0.347354
vt 0.777037 0.385084
vt 0.489562 0.262616
vt 0.530266 0.279721
vt 0.527338 0.282983
vt 0.489281 0.266991
vt 0.520834 0.287352
vt 0.490712 0.274694
vt 0.994476 0.946582
vt 0.994476 0.979255
vt 0.984314 0.979255
vt 0.984314 0.946582
vt 0.617115 0.899403
vt 0.619174 0.899363
vt 0.619174 0.903792
vt 0.617122 0.903975
vt 0.613665 0.900691
vt 0.613756 0.905465
vt 0.379772 0.576969
vt 0.379772 0.587645
vt 0.369097 0.587645
vt 0.369097 0.576969
vt 0.379271 0.411319
vt 0.369437 0.411361
vt 0.370595 0.398855
vt 0.377618 0.398619
vt 0.358902 0.576948
vt 0.359247 0.409909
vt 0.389496 0.409779
vt 0.390452 0.576931
vt 0.369097 0.762571
vt 0.379773 0.762571
vt 0.377789 0.775442
vt 0.371081 0.775442
vt 0.384514 0.396870
vt 0.363896 0.397465
vn 0.0000 0.0000 -1.0000
vn 0.0000 0.0000 1.0000
vn -1.0000 0.0000 0.0000
vn 1.0000 0.0000 0.0000
vn 0.0000 1.0000 0.0000
vn 0.0000 -0.1541 0.9881
vn 0.0000 -0.1541 -0.9881
vn -0.9881 -0.1541 0.0000
vn 0.9881 -0.1541 0.0000
vn 0.0000 -1.0000 0.0000
vn 0.0000 -0.1568 0.9876
vn 0.9876 -0.1568 0.0000
vn 0.0000 -0.1568 -0.9876
vn -0.9876 -0.1568 0.0000
vn -0.7533 0.6577 0.0000
vn 0.0836 -0.3173 0.9446
vn 0.0000 0.6577 -0.7533
vn 0.1573 -0.5697 0.8067
vn 0.0000 0.3477 -0.9376
vn 0.0000 0.3477 0.9376
vn 0.0000 0.6577 0.7533
vn -0.9376 0.3476 0.0000
vn 0.9376 0.3477 0.0000
vn 0.9406 0.3371 0.0402
vn 0.9406 0.3371 -0.0402
vn 0.7533 0.6577 0.0000
vn 0.7688 0.6392 -0.0171
vn 0.7688 0.6392 0.0171
vn 0.9391 0.3437 0.0000
vn 0.7235 0.6903 0.0000
vn 0.2762 -0.9611 0.0000
vn 0.0836 -0.3173 -0.9446
vn 0.1573 -0.5697 -0.8067
vn -0.2539 0.9672 0.0000
vn 0.0000 0.3476 -0.9376
usemtl Material.002
s off
f 48/1/1 49/2/1 102/3/1 103/4/1
f 4/5/2 7/6/2 11/7/2 8/8/2
f 7/6/3 6/9/3 10/10/3 11/11/3
f 5/12/4 4/5/4 8/13/4 9/14/4
f 5/12/5 6/9/5 7/6/5 4/5/5
f 9/15/1 10/16/1 6/9/1 5/12/1
f 46/17/4 48/1/4 103/4/4 105/18/4
f 22/19/6 18/20/6 17/21/6 16/22/6
f 20/23/7 24/24/7 15/25/7 14/26/7
f 18/27/8 20/28/8 14/29/8 17/30/8
f 18/27/3 19/31/3 21/32/3 20/28/3
f 20/23/1 21/33/1 25/34/1 24/24/1
f 24/24/4 25/34/4 23/35/4 22/19/4
f 22/19/2 23/35/2 19/36/2 18/20/2
f 24/24/9 22/19/9 16/22/9 15/25/9
f 25/34/5 21/32/5 19/31/5 23/35/5
f 28/37/1 27/38/1 31/39/1 36/40/1
f 36/40/5 31/39/5 30/41/5 37/42/5
f 36/40/4 37/42/4 29/43/4 28/44/4
f 30/41/3 31/39/3 27/45/3 26/46/3
f 37/42/2 30/41/2 26/47/2 29/48/2
f 39/49/10 42/50/10 44/51/10 43/52/10
f 44/51/11 45/53/11 40/54/11 43/55/11
f 42/50/12 41/56/12 45/53/12 44/51/12
f 39/57/13 38/58/13 41/56/13 42/50/13
f 43/52/14 40/59/14 38/60/14 39/49/14
f 49/61/3 47/62/3 104/63/3 102/64/3
f 13/65/5 12/66/5 2/67/5 3/68/5
f 47/69/2 46/17/2 105/18/2 104/70/2
f 35/71/4 13/65/4 3/68/4 32/72/4
f 57/73/15 55/74/15 51/75/15 53/76/15
f 107/77/16 56/78/16 114/79/16 112/80/16
f 33/81/3 2/67/3 12/66/3 34/82/3
f 32/83/10 33/84/10 34/85/10 35/86/10
f 109/87/17 57/73/17 53/76/17 110/88/17
f 110/88/5 53/76/5 51/75/5 111/89/5
f 56/78/18 52/90/18 116/91/18 114/79/18
f 60/92/19 61/93/19 57/73/19 109/87/19
f 59/94/20 58/95/20 106/96/20 55/74/20
f 55/74/21 106/96/21 111/89/21 51/75/21
f 61/93/22 59/94/22 55/74/22 57/73/22
f 64/97/14 67/98/14 69/99/14 68/100/14
f 68/101/13 69/102/13 66/103/13 65/104/13
f 65/104/12 66/103/12 62/105/12 63/106/12
f 63/106/11 62/105/11 67/107/11 64/108/11
f 68/100/10 65/104/10 63/106/10 64/97/10
f 70/109/22 72/110/22 76/111/22 74/112/22
f 76/111/21 90/113/21 95/114/21 80/115/21
f 72/110/20 73/116/20 90/113/20 76/111/20
f 71/117/19 70/109/19 74/112/19 93/118/19
f 75/119/18 79/120/18 100/121/18 98/122/18
f 94/123/5 78/124/5 80/115/5 95/114/5
f 93/118/17 74/112/17 78/124/17 94/123/17
f 91/125/16 75/119/16 98/122/16 96/126/16
f 74/112/15 76/111/15 80/115/15 78/124/15
f 84/127/2 85/128/2 89/129/2 88/130/2
f 82/131/3 84/132/3 88/133/3 86/134/3
f 85/128/4 83/135/4 87/136/4 89/129/4
f 83/135/1 82/137/1 86/138/1 87/136/1
f 86/139/5 88/140/5 89/129/5 87/136/5
f 82/141/10 83/135/10 85/128/10 84/142/10
f 91/143/23 92/144/23 73/145/23 71/146/23
f 92/147/24 77/148/24 90/113/24 73/116/24
f 75/149/25 91/150/25 71/117/25 93/118/25
f 81/151/26 79/152/26 94/123/26 95/114/26
f 77/148/27 81/151/27 95/114/27 90/113/27
f 79/152/28 75/149/28 93/118/28 94/123/28
f 97/153/29 96/154/29 98/155/29 99/156/29
f 99/156/30 98/155/30 100/157/30 101/158/30
f 79/159/31 81/160/31 101/161/31 100/162/31
f 77/163/32 92/164/32 97/165/32 99/166/32
f 81/167/33 77/163/33 99/166/33 101/168/33
f 92/164/34 91/125/34 96/126/34 97/165/34
f 102/169/5 104/170/5 105/18/5 103/4/5
f 49/171/10 48/1/10 46/17/10 47/172/10
f 107/173/23 108/174/23 58/175/23 60/176/23
f 108/177/24 54/178/24 106/96/24 58/95/24
f 56/179/25 107/180/25 60/92/25 109/87/25
f 50/181/26 52/182/26 110/88/26 111/89/26
f 54/178/27 50/181/27 111/89/27 106/96/27
f 52/182/28 56/179/28 109/87/28 110/88/28
f 113/183/29 112/184/29 114/185/29 115/186/29
f 115/186/30 114/185/30 116/187/30 117/188/30
f 52/189/31 50/190/31 117/191/31 116/192/31
f 54/193/32 108/194/32 113/195/32 115/196/32
f 50/197/33 54/193/33 115/196/33 117/198/33
f 108/194/34 107/77/34 112/80/34 113/195/34
f 120/199/1 121/200/1 142/201/1 143/202/1
f 118/203/4 120/199/4 143/202/4 145/204/4
f 121/205/3 119/206/3 144/207/3 142/208/3
f 119/209/2 118/203/2 145/204/2 144/210/2
f 129/211/15 127/212/15 123/213/15 125/214/15
f 147/215/16 128/216/16 154/217/16 152/218/16
f 149/219/17 129/211/17 125/214/17 150/220/17
f 150/220/5 125/214/5 123/213/5 151/221/5
f 128/216/18 124/222/18 156/223/18 154/217/18
f 132/224/19 133/225/19 129/211/19 149/219/19
f 131/226/20 130/227/20 146/228/20 127/212/20
f 127/212/21 146/228/21 151/221/21 123/213/21
f 133/225/22 131/226/22 127/212/22 129/211/22
f 136/229/14 139/230/14 141/231/14 140/232/14
f 140/233/13 141/234/13 138/235/13 137/236/13
f 137/236/12 138/235/12 134/237/12 135/238/12
f 135/238/11 134/237/11 139/239/11 136/240/11
f 140/232/10 137/236/10 135/238/10 136/229/10
f 142/241/5 144/242/5 145/204/5 143/202/5
f 121/243/10 120/199/10 118/203/10 119/244/10
f 147/245/23 148/246/23 130/247/23 132/248/23
f 148/249/24 126/250/24 146/228/24 130/227/24
f 128/251/25 147/252/25 132/224/25 149/219/25
f 122/253/26 124/254/26 150/220/26 151/221/26
f 126/250/27 122/253/27 151/221/27 146/228/27
f 124/254/28 128/251/28 149/219/28 150/220/28
f 153/255/29 152/256/29 154/257/29 155/258/29
f 155/258/30 154/257/30 156/259/30 157/260/30
f 124/261/31 122/262/31 157/263/31 156/264/31
f 126/265/32 148/266/32 153/267/32 155/268/32
f 122/269/33 126/265/33 155/268/33 157/270/33
f 148/266/34 147/215/34 152/218/34 153/267/34
f 160/271/1 161/272/1 182/273/1 183/274/1
f 158/275/4 160/271/4 183/274/4 185/276/4
f 161/277/3 159/278/3 184/279/3 182/280/3
f 159/281/2 158/275/2 185/276/2 184/282/2
f 169/283/15 167/284/15 163/285/15 165/286/15
f 187/287/16 168/288/16 194/289/16 192/290/16
f 189/291/17 169/283/17 165/286/17 190/292/17
f 190/292/5 165/286/5 163/285/5 191/293/5
f 168/288/18 164/294/18 196/295/18 194/289/18
f 172/296/35 173/297/35 169/283/35 189/291/35
f 171/298/20 170/299/20 186/300/20 167/284/20
f 167/284/21 186/300/21 191/293/21 163/285/21
f 173/297/22 171/298/22 167/284/22 169/283/22
f 176/301/14 179/302/14 181/303/14 180/304/14
f 180/305/13 181/306/13 178/307/13 177/308/13
f 177/308/12 178/307/12 174/309/12 175/310/12
f 175/310/11 174/309/11 179/311/11 176/312/11
f 180/304/10 177/308/10 175/310/10 176/301/10
f 182/313/5 184/314/5 185/276/5 183/274/5
f 161/315/10 160/271/10 158/275/10 159/316/10
f 187/317/23 188/318/23 170/319/23 172/320/23
f 188/321/24 166/322/24 186/300/24 170/299/24
f 168/323/25 187/324/25 172/296/25 189/291/25
f 162/325/26 164/326/26 190/292/26 191/293/26
f 166/322/27 162/325/27 191/293/27 186/300/27
f 164/326/28 168/323/28 189/291/28 190/292/28
f 193/327/29 192/328/29 194/329/29 195/330/29
f 195/330/30 194/329/30 196/331/30 197/332/30
f 164/333/31 162/334/31 197/335/31 196/336/31
f 166/337/32 188/338/32 193/339/32 195/340/32
f 162/341/33 166/337/33 195/340/33 197/342/33
f 188/338/34 187/287/34 192/290/34 193/339/34
f 198/343/5 202/344/5 204/345/5 200/346/5
f 199/347/9 201/348/9 207/349/9 208/350/9
f 201/348/2 200/346/2 204/351/2 205/352/2
f 199/347/4 198/343/4 200/346/4 201/348/4
f 203/353/1 202/354/1 198/343/1 199/347/1
f 205/355/3 204/345/3 202/344/3 203/356/3
f 205/355/8 203/356/8 209/357/8 206/358/8
f 203/353/7 199/347/7 208/350/7 209/359/7
f 201/348/6 205/352/6 206/360/6 207/349/6
