# Blender v2.79 (sub 0) OBJ File: 'Modulo parque.blend'
# www.blender.org
mtllib monumentoparque.mtl
o Cube
v 5.446068 9.324759 1.768970
v 5.446068 8.701359 1.011245
v 4.497044 8.701359 1.011245
v 4.497044 9.324759 1.768970
v 4.497044 4.677910 -0.500329
v 4.497044 4.677910 -1.449353
v 5.446068 4.677910 -1.449353
v 5.446068 4.677910 -0.500329
v 5.446068 6.858191 1.904888
v 5.446068 7.115637 1.021610
v 4.497044 7.115637 1.021608
v 4.497044 6.858191 1.904888
v 5.446068 5.285818 1.059415
v 5.446068 6.581636 0.612037
v 4.497044 6.581636 0.612037
v 4.497044 5.285818 1.059415
v 5.446068 6.048782 -0.500329
v 5.446068 6.048782 -1.449353
v 4.497044 6.048782 -1.449349
v 4.497044 6.048782 -0.500329
v 4.497044 1.329483 -1.449353
v 4.497044 1.329483 -0.500329
v 5.446068 1.329483 -1.449353
v 5.446068 1.329483 -0.500329
v 5.023556 1.308708 -2.960082
v 5.023556 1.637051 -2.960082
v 6.435174 1.308708 -2.375371
v 6.435174 1.637051 -2.375371
v 7.019886 1.308708 -0.963751
v 7.019886 1.637051 -0.963751
v 6.435174 1.308708 0.447866
v 6.435174 1.637051 0.447866
v 5.023556 1.308708 1.032579
v 5.023556 1.637051 1.032579
v 3.611938 1.308708 0.447866
v 3.611938 1.637051 0.447866
v 3.027227 1.308708 -0.963751
v 3.027227 1.637051 -0.963751
v 3.611938 1.308708 -2.375371
v 3.611938 1.637051 -2.375371
v 4.394369 6.973944 -0.495982
v 4.394369 6.973944 -1.445000
v 5.758771 7.059240 -0.495982
v 5.758771 7.059240 -1.445006
v 6.613397 7.502029 -1.449353
v 6.613397 7.502029 -0.500329
v 6.844945 6.807934 -1.449353
v 6.844945 6.807934 -0.500329
v 6.924486 8.614290 -1.449353
v 6.924486 8.614290 -0.500329
v 7.596149 8.847008 -1.449353
v 7.596149 8.847008 -0.500329
v 2.988476 7.570391 -0.498156
v 3.551685 7.836428 -0.498156
v 3.551685 7.836428 -1.447175
v 2.988476 7.570391 -1.447175
v 3.186715 9.665035 -0.498154
v 3.647422 9.245834 -0.498154
v 3.647422 9.245834 -1.447175
v 3.186715 9.665035 -1.447175
v 4.710409 10.359509 1.270715
v 4.710409 10.016422 0.598779
v 5.232704 10.016422 0.598779
v 5.232704 10.359509 1.270715
v 4.676255 5.789911 -3.083292
v 4.676255 4.936783 -3.083292
v 5.266857 5.789911 -3.083292
v 5.266857 4.936783 -3.083292
v 4.676255 6.580883 -3.551356
v 4.676255 6.257931 -4.340995
v 5.266857 6.580883 -3.551356
v 5.266857 6.257931 -4.340995
v 4.676255 7.284836 -3.412835
v 4.676255 7.593439 -4.208190
v 5.266857 7.284836 -3.412835
v 5.266857 7.593439 -4.208190
vt 0.966040 0.145762
vt 0.985785 0.145762
vt 0.985785 0.206746
vt 0.966040 0.206746
vt 0.446763 0.363922
vt 0.432593 0.342644
vt 0.404019 0.353122
vt 0.411208 0.371417
vt 0.951702 0.800670
vt 0.978499 0.800670
vt 0.972475 0.833099
vt 0.957727 0.833099
vt 0.432593 0.342644
vt 0.446763 0.363922
vt 0.411208 0.371417
vt 0.404019 0.353122
vt 0.504884 0.628559
vt 0.390347 0.629830
vt 0.390347 0.678361
vt 0.504884 0.677065
vt 0.972475 0.854402
vt 0.957727 0.854402
vt 0.424728 0.711563
vt 0.470585 0.711364
vt 0.512683 0.928742
vt 0.512683 0.845182
vt 0.536366 0.845182
vt 0.536366 0.928742
vt 0.958891 0.597395
vt 0.958891 0.522966
vt 0.979985 0.522966
vt 0.979985 0.597395
vt 0.465317 0.928742
vt 0.465317 0.845182
vt 0.489000 0.845182
vt 0.489000 0.928742
vt 0.496887 0.345596
vt 0.487895 0.367816
vt 0.978500 0.938094
vt 0.951703 0.938094
vt 0.951703 0.893319
vt 0.978500 0.893318
vt 0.487895 0.367816
vt 0.496887 0.345596
vt 0.535426 0.371640
vt 0.500662 0.379835
vt 0.978500 0.957097
vt 0.951703 0.957097
vt 0.500662 0.379835
vt 0.535426 0.371640
vt 0.951702 0.730918
vt 0.978499 0.730918
vt 0.951702 0.633240
vt 0.978499 0.633240
vt 0.978499 0.680508
vt 0.951702 0.680508
vt 0.511554 0.410068
vt 0.547090 0.413667
vt 0.547090 0.413667
vt 0.511554 0.410068
vt 0.509063 0.434668
vt 0.544598 0.438267
vt 0.991777 0.390161
vt 0.960048 0.390161
vt 0.966040 0.334853
vt 0.985785 0.334853
vt 0.544598 0.438267
vt 0.509063 0.434668
vt 0.978500 0.991924
vt 0.951703 0.991924
vt 0.155059 0.584360
vt 0.162357 0.584360
vt 0.162358 0.618322
vt 0.155059 0.618322
vt 0.162358 0.652285
vt 0.155059 0.652285
vt 0.162358 0.686248
vt 0.155059 0.686248
vt 0.155059 0.414547
vt 0.162358 0.414547
vt 0.162358 0.448510
vt 0.155059 0.448510
vt 0.162357 0.482472
vt 0.155059 0.482472
vt 0.162357 0.516435
vt 0.155059 0.516435
vt 0.473122 0.595335
vt 0.422714 0.596191
vt 0.162357 0.550397
vt 0.155059 0.550397
vt 0.958891 0.427084
vt 0.979985 0.427084
vt 0.980034 0.474712
vt 0.958939 0.474712
vt 0.625149 0.914639
vt 0.577594 0.920320
vt 0.572619 0.850161
vt 0.624740 0.865814
vt 0.549471 0.806382
vt 0.585081 0.794171
vt 0.625149 0.914639
vt 0.577594 0.920320
vt 0.572619 0.850161
vt 0.624740 0.865814
vt 0.718203 0.992178
vt 0.678001 0.992178
vt 0.678001 0.964271
vt 0.718203 0.964271
vt 0.746508 0.992306
vt 0.746508 0.964398
vt 0.780471 0.964398
vt 0.780471 0.992306
vt 0.990649 0.396302
vt 0.970189 0.396302
vt 0.970189 0.361990
vt 0.990649 0.361990
vt 0.547515 0.992908
vt 0.533585 0.964047
vt 0.801375 0.992306
vt 0.801375 0.964398
vt 0.970189 0.315143
vt 0.990649 0.315143
vt 0.492113 0.790855
vt 0.479851 0.756400
vt 0.439664 0.983613
vt 0.461033 0.959730
vt 0.533585 0.964047
vt 0.547515 0.992908
vt 0.439664 0.983613
vt 0.461033 0.959730
vt 0.549471 0.806382
vt 0.585081 0.794171
vt 0.642542 0.992243
vt 0.642542 0.964335
vt 0.582683 0.964335
vt 0.601000 0.964335
vt 0.601000 0.992243
vt 0.582683 0.992243
vt 0.492113 0.790855
vt 0.479851 0.756400
vt 0.980034 0.521479
vt 0.958939 0.521479
vt 0.533573 0.480195
vt 0.511458 0.477956
vt 0.511458 0.477956
vt 0.533573 0.480195
vt 0.960048 0.090454
vt 0.991777 0.090454
vt 0.985785 0.304125
vt 0.966040 0.304125
vt 0.966040 0.280139
vt 0.985785 0.280139
vt 0.489726 0.488013
vt 0.496025 0.509329
vt 0.496025 0.509329
vt 0.489726 0.488013
vt 0.985785 0.251616
vt 0.966040 0.251616
vt 0.461755 0.502381
vt 0.471843 0.482574
vt 0.471843 0.482574
vt 0.461755 0.502381
vn 0.0000 -0.6895 -0.7243
vn -0.9852 0.1418 -0.0958
vn 0.0000 0.4338 0.9010
vn 0.9852 0.1418 -0.0958
vn 0.0000 1.0000 -0.0000
vn 0.0000 0.8906 -0.4547
vn 0.0000 0.0000 1.0000
vn 1.0000 0.0000 0.0000
vn 0.0000 0.0000 -1.0000
vn 0.0000 -0.0065 -1.0000
vn -1.0000 0.0000 0.0000
vn 0.0000 -0.2993 -0.9542
vn 0.0000 0.6086 -0.7935
vn 0.0000 0.0550 0.9985
vn 0.0000 -0.9317 0.3631
vn 0.0000 -0.4736 0.8807
vn -0.0000 0.9877 -0.1565
vn 0.0000 0.9019 -0.4320
vn 0.3827 0.0000 -0.9239
vn 0.9239 0.0000 -0.3827
vn 0.9239 0.0000 0.3827
vn 0.3827 0.0000 0.9239
vn -0.3827 0.0000 0.9239
vn -0.9239 0.0000 0.3827
vn -0.9239 0.0000 -0.3827
vn -0.3827 0.0000 -0.9239
vn -0.7101 -0.7041 0.0000
vn -0.0002 0.0045 -1.0000
vn -0.0034 0.0027 -1.0000
vn 0.0002 -0.0045 1.0000
vn -0.0624 0.9981 0.0000
vn -0.9630 0.2694 0.0000
vn 0.4770 -0.8789 0.0000
vn -0.4600 0.8879 0.0000
vn 0.0034 -0.0027 1.0000
vn -0.3274 0.9449 0.0000
vn 0.9383 -0.3457 0.0000
vn 0.0027 0.0026 -1.0000
vn -0.0027 -0.0026 1.0000
vn 0.7153 0.6988 0.0000
vn 0.6730 0.7396 0.0000
vn -0.9956 0.0942 0.0000
vn 0.9977 -0.0678 0.0000
vn 0.9940 0.0000 -0.1090
vn -0.9940 0.0000 -0.1090
vn 0.0000 -0.9877 -0.1565
vn 0.0000 -0.1931 0.9812
vn 0.0000 0.5093 0.8606
vn 0.0000 0.9323 0.3617
vn 0.0000 0.0990 -0.9951
usemtl Material.003
s off
f 68/1/1 66/2/1 70/3/1 72/4/1
f 3/5/2 4/6/2 61/7/2 62/8/2
f 4/9/3 1/10/3 64/11/3 61/12/3
f 1/13/4 2/14/4 63/15/4 64/16/4
f 34/17/5 28/18/5 26/19/5 36/20/5
f 64/11/6 63/21/6 62/22/6 61/12/6
f 36/20/5 26/19/5 40/23/5 38/24/5
f 5/25/7 22/26/7 24/27/7 8/28/7
f 8/29/8 24/30/8 23/31/8 7/32/8
f 7/33/9 23/34/9 21/35/9 6/36/9
f 9/37/8 10/38/8 2/14/8 1/13/8
f 10/39/10 11/40/10 3/41/10 2/42/10
f 11/43/11 12/44/11 4/6/11 3/5/11
f 2/42/12 3/41/12 62/22/12 63/21/12
f 13/45/8 14/46/8 10/38/8 9/37/8
f 14/47/13 15/48/13 11/40/13 10/39/13
f 15/49/11 16/50/11 12/44/11 11/43/11
f 12/51/14 9/52/14 1/10/14 4/9/14
f 5/53/15 8/54/15 13/55/15 16/56/15
f 20/57/11 5/58/11 16/50/11 15/49/11
f 8/59/8 17/60/8 14/46/8 13/45/8
f 16/56/16 13/55/16 9/52/16 12/51/16
f 5/58/11 20/57/11 19/61/11 6/62/11
f 19/63/17 18/64/17 67/65/17 65/66/17
f 7/67/8 18/68/8 17/60/8 8/59/8
f 17/69/18 20/70/18 15/48/18 14/47/18
f 25/71/19 26/72/19 28/73/19 27/74/19
f 27/74/20 28/73/20 30/75/20 29/76/20
f 29/76/21 30/75/21 32/77/21 31/78/21
f 31/79/22 32/80/22 34/81/22 33/82/22
f 33/82/23 34/81/23 36/83/23 35/84/23
f 35/84/24 36/83/24 38/85/24 37/86/24
f 28/18/5 34/17/5 32/87/5 30/88/5
f 6/36/11 21/35/11 22/26/11 5/25/11
f 37/86/25 38/85/25 40/89/25 39/90/25
f 39/90/26 40/89/26 26/72/26 25/71/26
f 19/91/27 20/92/27 53/93/27 56/94/27
f 19/95/28 42/96/28 44/97/28 18/98/28
f 18/98/29 44/97/29 45/99/29 47/100/29
f 17/101/30 43/102/30 41/103/30 20/104/30
f 44/105/31 42/106/31 41/107/31 43/108/31
f 45/109/32 46/110/32 50/111/32 49/112/32
f 17/113/33 18/114/33 47/115/33 48/116/33
f 44/105/34 43/108/34 46/110/34 45/109/34
f 43/102/35 17/101/35 48/117/35 46/118/35
f 51/119/36 49/112/36 50/111/36 52/120/36
f 48/116/37 47/115/37 51/121/37 52/122/37
f 47/100/9 45/99/9 49/123/9 51/124/9
f 46/118/7 48/117/7 52/125/7 50/126/7
f 55/127/9 56/128/9 60/129/9 59/130/9
f 42/96/38 19/95/38 56/128/38 55/127/38
f 20/104/39 41/103/39 54/131/39 53/132/39
f 41/107/40 42/106/40 55/133/40 54/134/40
f 57/135/41 58/136/41 59/137/41 60/138/41
f 53/132/7 54/131/7 58/139/7 57/140/7
f 56/94/42 53/93/42 57/141/42 60/142/42
f 54/134/43 55/133/43 59/137/43 58/136/43
f 18/68/44 7/67/44 68/143/44 67/144/44
f 6/62/45 19/61/45 65/145/45 66/146/45
f 7/147/46 6/148/46 66/2/46 68/1/46
f 69/149/47 71/150/47 75/151/47 73/152/47
f 66/146/11 65/145/11 69/153/11 70/154/11
f 65/66/48 67/65/48 71/150/48 69/149/48
f 67/144/8 68/143/8 72/155/8 71/156/8
f 74/157/49 73/152/49 75/151/49 76/158/49
f 71/156/8 72/155/8 76/159/8 75/160/8
f 72/4/50 70/3/50 74/157/50 76/158/50
f 70/154/11 69/153/11 73/161/11 74/162/11
