# Blender v2.79 (sub 0) OBJ File: 'Praça.blend'
# www.blender.org
mtllib Praça.mtl
o Cube.001
v -24.186094 0.283694 -3.723420
v 0.486000 0.450865 2.851175
v 0.829729 0.450865 2.993552
v 0.972105 0.450865 3.337282
v 0.829729 0.450865 3.681010
v 0.486000 0.450865 3.823388
v 0.142271 0.450865 3.681010
v -0.000107 0.450865 3.337281
v 0.142271 0.450865 2.993552
v 0.829729 2.208285 2.993552
v 0.486000 2.208285 2.851175
v 0.972105 2.208285 3.337282
v 0.829729 2.208285 3.681010
v 0.486000 2.208285 3.823388
v 0.142271 2.208285 3.681010
v -0.000107 2.208285 3.337281
v 0.142271 2.208285 2.993552
v 0.185835 0.945904 3.037117
v 0.218750 1.329575 3.070032
v 0.185835 1.713246 3.037117
v 0.486000 1.713246 2.912784
v 0.486000 1.329575 2.959334
v 0.486000 0.945904 2.912784
v 0.185835 0.945904 3.637446
v 0.218750 1.329575 3.604531
v 0.185835 1.713246 3.637446
v 0.061502 1.713246 3.337281
v 0.108051 1.329575 3.337281
v 0.061502 0.945904 3.337281
v 0.786165 0.945904 3.637446
v 0.753248 1.329575 3.604531
v 0.786165 1.713246 3.637446
v 0.486000 1.713246 3.761779
v 0.486000 1.329575 3.715229
v 0.486000 0.945904 3.761779
v 0.786165 0.945904 3.037117
v 0.753248 1.329575 3.070032
v 0.786165 1.713246 3.037117
v 0.910498 1.713246 3.337282
v 0.863947 1.329575 3.337281
v 0.910498 0.945904 3.337282
v 1.039431 2.542212 2.783850
v 0.486000 2.542212 2.554612
v 1.268669 2.542212 3.337282
v 1.039431 2.542212 3.890713
v 0.486000 2.542212 4.119951
v -0.067432 2.542212 3.890712
v -0.296671 2.542212 3.337281
v -0.067432 2.542212 2.783850
v 0.486000 2.972335 3.337281
v 0.799536 3.211856 3.565075
v 0.366241 3.211856 3.705863
v 0.098446 3.211856 3.337281
v 0.366241 3.211856 2.968700
v 0.799536 3.211856 3.109488
v 0.605757 3.599411 3.705863
v 0.172464 3.599411 3.565075
v 0.172464 3.599411 3.109488
v 0.605757 3.599411 2.968700
v 0.873552 3.599411 3.337281
v 0.486000 3.838933 3.337281
v 1.039431 2.542212 2.783850
v 0.486000 2.542212 2.554612
v 1.268669 2.542212 3.337282
v 1.039431 2.542212 3.890713
v 0.486000 2.542212 4.119951
v -0.067432 2.542212 3.890712
v -0.296671 2.542212 3.337281
v -0.067432 2.542212 2.783850
v 1.039431 2.643969 2.783850
v 0.486000 2.643969 2.554612
v 1.268669 2.643969 3.337282
v 1.039431 2.643969 3.890713
v 0.486000 2.643969 4.119951
v -0.067432 2.643969 3.890712
v -0.296671 2.643969 3.337281
v -0.067432 2.643969 2.783850
v 1.088743 2.537678 2.734539
v 0.486000 2.537678 2.484874
v 1.338408 2.537678 3.337282
v 1.088743 2.537678 3.940024
v 0.486000 2.537678 4.189689
v -0.116743 2.537678 3.940024
v -0.366407 2.537678 3.337281
v -0.116743 2.537678 2.734539
v 1.088743 2.648502 2.734539
v 0.486000 2.648502 2.484874
v 1.338408 2.648502 3.337282
v 1.088743 2.648502 3.940024
v 0.486000 2.648502 4.189689
v -0.116743 2.648502 3.940024
v -0.366407 2.648502 3.337281
v -0.116743 2.648502 2.734539
v 1.039431 2.643969 2.783850
v 0.486000 2.643969 2.554612
v 1.268669 2.643969 3.337282
v 1.039431 2.643969 3.890713
v 0.486000 2.643969 4.119951
v -0.067432 2.643969 3.890712
v -0.296671 2.643969 3.337281
v -0.067432 2.643969 2.783850
v 1.088743 2.648502 2.734539
v 0.486000 2.648502 2.484874
v 1.338408 2.648502 3.337282
v 1.088743 2.648502 3.940024
v 0.486000 2.648502 4.189689
v -0.116743 2.648502 3.940024
v -0.366407 2.648502 3.337281
v -0.116743 2.648502 2.734539
v 0.805872 3.239296 2.703612
v 0.707888 3.239296 2.663025
v 1.119669 3.239296 3.657154
v 1.160255 3.239296 3.559170
v 0.166126 3.239296 3.970951
v 0.264112 3.239296 4.011538
v -0.147671 3.239296 3.017409
v -0.188257 3.239296 3.115393
v 0.814604 3.240098 2.694881
v 0.707888 3.240098 2.650678
v 1.128401 3.240098 3.665885
v 1.172602 3.240098 3.559170
v 0.157396 3.240098 3.979682
v 0.264112 3.240098 4.023885
v -0.156401 3.240098 3.008678
v -0.200603 3.240098 3.115393
v 0.360767 2.944472 4.205889
v -0.039646 2.944472 4.040032
v -0.006887 2.941461 4.007274
v 0.360767 2.941461 4.159561
v 1.308279 2.941461 3.462514
v 1.354607 2.944472 3.462514
v 1.188749 2.944472 3.862927
v 1.155993 2.941461 3.830168
v 0.978888 2.941461 2.667289
v 0.611231 2.941461 2.515002
v 0.611231 2.944472 2.468674
v 1.011644 2.944472 2.634531
v -0.336281 2.941461 3.212049
v -0.382608 2.944472 3.212049
v -0.216751 2.944472 2.811635
v -0.183992 2.941461 2.844394
v 0.486000 -0.068833 1.455806
v 1.849333 -0.068833 2.020517
v 2.414043 -0.068833 3.383849
v 1.849333 -0.068833 4.747182
v 0.485998 -0.068833 5.311893
v -0.877333 -0.068833 4.747182
v -1.442045 -0.068833 3.383849
v -0.877333 -0.068833 2.020517
v 2.083769 0.443561 1.786079
v 0.486000 0.443561 1.124260
v 2.745588 0.443561 3.383849
v 2.083769 0.443561 4.981620
v 0.485998 0.443561 5.643438
v -1.111773 0.443561 4.981620
v -1.773590 0.443561 3.383849
v -1.111773 0.443561 1.786079
v 2.382673 0.761943 1.487175
v 0.486000 0.761943 0.701546
v 3.168303 0.761943 3.383849
v 2.382673 0.761943 5.280524
v 0.485998 0.761943 6.066153
v -1.410675 0.761943 5.280523
v -2.196302 0.761943 3.383849
v -1.410675 0.761943 1.487175
v 2.161306 0.761943 1.708543
v 0.486000 0.761943 1.014609
v 2.855240 0.761943 3.383849
v 2.161306 0.761943 5.059155
v 0.485998 0.761943 5.753090
v -1.189306 0.761943 5.059155
v -1.883242 0.761943 3.383849
v -1.189306 0.761943 1.708543
v 1.897287 0.443561 1.972561
v 0.486000 0.443561 1.387986
v 2.481863 0.443561 3.383849
v 1.897287 0.443561 4.795138
v 0.485998 0.443561 5.379713
v -0.925289 0.443561 4.795137
v -1.509865 0.443561 3.383849
v -0.925289 0.443561 1.972561
v 0.486000 3.043897 3.337281
v 0.773667 3.243860 3.189201
v 0.715725 3.243860 3.565110
v 0.340308 3.243860 3.626169
v 0.166234 3.243860 3.287991
v 0.434065 3.243860 3.017934
v 0.805765 3.567408 3.386573
v 0.537934 3.567408 3.656629
v 0.198333 3.567408 3.485361
v 0.256274 3.567408 3.109453
v 0.631691 3.567408 3.048395
v 0.486000 3.767370 3.337281
vt 0.335389 0.092718
vt 0.356530 0.092859
vt 0.356256 0.124033
vt 0.334381 0.123473
vt 0.515998 0.185316
vt 0.506680 0.200752
vt 0.485916 0.194644
vt 0.500918 0.169789
vt 0.377787 0.092644
vt 0.398922 0.091946
vt 0.400759 0.123300
vt 0.378390 0.124033
vt 0.419659 0.090523
vt 0.439779 0.087932
vt 0.445903 0.117966
vt 0.423313 0.121469
vt 0.294469 0.091336
vt 0.314605 0.092249
vt 0.312786 0.122368
vt 0.291498 0.120570
vt 0.275383 0.089652
vt 0.270517 0.117721
vt 0.312746 0.008773
vt 0.335115 0.008041
vt 0.335719 0.039430
vt 0.314583 0.040128
vt 0.335840 0.066183
vt 0.315267 0.066421
vt 0.267602 0.014108
vt 0.290192 0.010604
vt 0.293846 0.041551
vt 0.273726 0.044142
vt 0.295480 0.066840
vt 0.277237 0.067385
vt 0.400719 0.009706
vt 0.422007 0.011504
vt 0.419036 0.040737
vt 0.398901 0.039825
vt 0.418025 0.065234
vt 0.398238 0.065652
vt 0.357249 0.008041
vt 0.379125 0.008601
vt 0.378116 0.039355
vt 0.356976 0.039215
vt 0.377665 0.065891
vt 0.356753 0.066037
vt 0.442989 0.014352
vt 0.438122 0.042422
vt 0.436269 0.064688
vt 0.566875 0.234730
vt 0.575276 0.218776
vt 0.596361 0.223662
vt 0.582835 0.249350
vt 0.574750 0.200753
vt 0.565432 0.185316
vt 0.580512 0.169789
vt 0.595514 0.194644
vt 0.549730 0.176453
vt 0.555230 0.155519
vt 0.531700 0.176453
vt 0.526200 0.155519
vt 0.506154 0.218776
vt 0.485069 0.223662
vt 0.635959 0.319020
vt 0.653575 0.301343
vt 0.656266 0.302455
vt 0.637081 0.321707
vt 0.653575 0.276387
vt 0.656266 0.275275
vt 0.635959 0.258709
vt 0.637080 0.256023
vt 0.611003 0.258622
vt 0.609901 0.255928
vt 0.686011 0.226262
vt 0.686011 0.253442
vt 0.681394 0.253442
vt 0.681394 0.226262
vt 0.686011 0.280621
vt 0.686011 0.307800
vt 0.681394 0.307800
vt 0.681394 0.280621
vt 0.686011 0.117545
vt 0.686011 0.144724
vt 0.681394 0.144724
vt 0.681394 0.117545
vt 0.686011 0.171904
vt 0.686011 0.199083
vt 0.681394 0.199083
vt 0.681394 0.171904
vt 0.686011 0.334980
vt 0.681394 0.334980
vt 0.611004 0.319107
vt 0.609902 0.321802
vt 0.593266 0.301554
vt 0.590583 0.302684
vt 0.593265 0.276176
vt 0.593090 0.301131
vt 0.590392 0.302224
vt 0.590582 0.275046
vt 0.947407 0.445618
vt 0.929761 0.463264
vt 0.927072 0.462148
vt 0.946291 0.442929
vt 0.929761 0.488220
vt 0.947407 0.505867
vt 0.946291 0.508555
vt 0.927072 0.489337
vt 0.613760 0.431947
vt 0.642264 0.460451
vt 0.640460 0.464795
vt 0.609417 0.433751
vt 0.642264 0.363133
vt 0.613760 0.391637
vt 0.609417 0.389833
vt 0.640460 0.358790
vt 0.972363 0.445618
vt 0.972363 0.505867
vt 0.820895 0.054139
vt 0.818510 0.051180
vt 0.838907 0.039651
vt 0.839977 0.039795
vt 0.865190 0.019736
vt 0.865154 0.051767
vt 0.839977 0.039795
vt 0.840053 0.031259
vt 0.819265 0.021254
vt 0.839122 0.031407
vt 0.821398 0.018510
vt 0.840053 0.031259
vt 0.840053 0.031259
vt 0.839977 0.039795
vt 0.838907 0.039651
vt 0.839122 0.031407
vt 0.838907 0.039651
vt 0.839122 0.031407
vt 0.840051 0.031249
vt 0.840072 0.039786
vt 0.839000 0.039653
vt 0.839122 0.031407
vt 0.818735 0.051413
vt 0.819151 0.021480
vt 0.821134 0.054001
vt 0.865190 0.019736
vt 0.865154 0.051767
vt 0.821254 0.018712
vt 0.819265 0.021254
vt 0.821398 0.018510
vt 0.818510 0.051180
vt 0.865305 0.019440
vt 0.865383 0.051471
vt 0.820895 0.054139
vt 0.819265 0.021254
vt 0.821398 0.018510
vt 0.818510 0.051180
vt 0.865190 0.019736
vt 0.865154 0.051767
vt 0.820895 0.054139
vt 0.890178 0.011287
vt 0.890296 0.059503
vt 0.796519 0.010905
vt 0.798409 0.005566
vt 0.800986 0.069418
vt 0.798511 0.064561
vt 0.890091 0.011671
vt 0.889974 0.060079
vt 0.796435 0.010955
vt 0.798345 0.005623
vt 0.798138 0.064098
vt 0.800693 0.069484
vt 0.800693 0.069484
vt 0.798138 0.064098
vt 0.796435 0.010955
vt 0.798345 0.005623
vt 0.890091 0.011671
vt 0.889974 0.060079
vt 0.890091 0.011671
vt 0.890038 0.059887
vt 0.800693 0.069484
vt 0.798138 0.064098
vt 0.796435 0.010955
vt 0.798345 0.005623
vt 0.061993 0.197857
vt 0.042850 0.210428
vt 0.022686 0.148474
vt 0.044822 0.147225
vt 0.036032 0.086879
vt 0.055114 0.096611
vt 0.077157 0.041970
vt 0.088343 0.059382
vt 0.133342 0.024513
vt 0.134200 0.044491
vt 0.188731 0.037296
vt 0.179720 0.054389
vt 0.228743 0.074898
vt 0.212900 0.084820
vt 0.243582 0.124998
vt 0.225953 0.126492
vt 0.102323 0.234091
vt 0.091132 0.253522
vt 0.242375 0.066770
vt 0.258946 0.125478
vt 0.003808 0.149167
vt 0.019938 0.078263
vt 0.163906 0.198709
vt 0.198621 0.165336
vt 0.213983 0.171565
vt 0.170420 0.213983
vt 0.115549 0.198521
vt 0.109565 0.213983
vt 0.067921 0.026945
vt 0.132948 0.007478
vt 0.081582 0.164825
vt 0.066419 0.171467
vt 0.196693 0.022889
vt 0.082226 0.117101
vt 0.066865 0.110872
vt 0.207220 0.433319
vt 0.207220 0.357775
vt 0.219270 0.352784
vt 0.219270 0.438310
vt 0.153802 0.304357
vt 0.158793 0.292308
vt 0.078258 0.304357
vt 0.073267 0.292308
vt 0.024840 0.357775
vt 0.012790 0.352784
vt 0.024840 0.433320
vt 0.012790 0.438311
vt 0.078258 0.486738
vt 0.073266 0.498787
vt 0.153802 0.486738
vt 0.158793 0.498788
vt 0.199266 0.117613
vt 0.214429 0.110970
vt 0.165299 0.083917
vt 0.171282 0.068455
vt 0.116941 0.083728
vt 0.110428 0.068455
vt 0.083215 0.271448
vt 0.026392 0.220950
vt 0.119186 0.426011
vt 0.134330 0.400501
vt 0.141931 0.422667
vt 0.106402 0.400629
vt 0.153639 0.466382
vt 0.117255 0.469784
vt 0.140833 0.434452
vt 0.081173 0.464003
vt 0.096046 0.432982
vt 0.117255 0.469784
vt 0.096742 0.422874
vt 0.121246 0.381598
vt 0.081172 0.464003
vt 0.096046 0.432982
vt 0.117255 0.469784
vt 0.096046 0.432982
vt 0.140833 0.434452
vt 0.140833 0.434452
vt 0.153640 0.466382
vt 0.117255 0.469784
vt 0.140833 0.434452
vt 0.081172 0.464003
vt 0.121246 0.381598
vt 0.134330 0.400501
vt 0.106402 0.400629
vt 0.153640 0.466382
vt 0.096046 0.432982
vt 0.153639 0.466382
vt 0.141931 0.422667
vt 0.119186 0.426011
vt 0.096742 0.422874
vt 0.081173 0.464003
vt 0.119186 0.426011
vt 0.134330 0.400501
vt 0.141931 0.422667
vt 0.106402 0.400629
vt 0.153639 0.466382
vt 0.117255 0.469784
vt 0.140833 0.434452
vt 0.081173 0.464003
vt 0.096046 0.432982
vt 0.117255 0.469784
vt 0.096742 0.422874
vt 0.121246 0.381598
vt 0.081172 0.464003
vt 0.096046 0.432982
vt 0.117255 0.469784
vt 0.096046 0.432982
vt 0.140833 0.434452
vt 0.140833 0.434452
vt 0.153640 0.466382
vt 0.117255 0.469784
vt 0.140833 0.434452
vt 0.081172 0.464003
vt 0.121246 0.381598
vt 0.134330 0.400501
vt 0.106402 0.400629
vt 0.153640 0.466382
vt 0.096046 0.432982
vt 0.153639 0.466382
vt 0.141931 0.422667
vt 0.119186 0.426011
vt 0.096742 0.422874
vt 0.081173 0.464003
vn -0.3802 -0.1142 -0.9178
vn -0.2958 -0.6343 0.7142
vn -0.9178 -0.1142 0.3802
vn 0.3802 -0.1142 0.9178
vn 0.9178 -0.1142 -0.3802
vn -0.9178 -0.1142 -0.3802
vn -0.3802 -0.1142 0.9178
vn 0.9178 -0.1142 0.3802
vn 0.3802 -0.1142 -0.9178
vn 0.3802 0.1142 -0.9178
vn 0.3803 0.1114 -0.9181
vn 0.3803 -0.1114 -0.9181
vn 0.9178 0.1142 0.3802
vn 0.9181 0.1114 0.3803
vn 0.9181 -0.1114 0.3803
vn -0.3802 0.1142 0.9178
vn -0.3803 0.1114 0.9181
vn -0.3803 -0.1114 0.9181
vn -0.9178 0.1142 -0.3802
vn -0.9181 0.1114 -0.3803
vn -0.9181 -0.1114 -0.3803
vn 0.9178 0.1142 -0.3802
vn 0.9181 0.1114 -0.3803
vn 0.9181 -0.1114 -0.3803
vn 0.3802 0.1142 0.9178
vn 0.3803 0.1114 0.9181
vn 0.3803 -0.1114 0.9181
vn -0.9178 0.1142 0.3802
vn -0.9181 0.1114 0.3803
vn -0.9181 -0.1114 0.3803
vn -0.3802 0.1142 -0.9178
vn -0.3803 0.1114 -0.9181
vn -0.3803 -0.1114 -0.9181
vn 0.7142 -0.6343 0.2958
vn 0.2958 -0.6343 -0.7142
vn -0.2958 -0.6343 -0.7142
vn -0.7142 -0.6343 0.2958
vn 0.2958 -0.6343 0.7142
vn 0.7142 -0.6343 -0.2958
vn -0.7142 -0.6343 -0.2958
vn -0.0269 -0.9975 0.0649
vn 0.0269 -0.9975 0.0649
vn 0.0649 -0.9975 0.0269
vn 0.0649 -0.9975 -0.0269
vn -0.9239 0.0000 -0.3827
vn -0.3827 0.0000 0.9239
vn 0.9239 0.0000 0.3827
vn 0.3827 0.0000 -0.9239
vn -0.3827 0.0000 -0.9239
vn -0.9239 0.0000 0.3827
vn 0.3827 0.0000 0.9239
vn 0.9239 0.0000 -0.3827
vn -0.0649 -0.9975 0.0269
vn -0.0649 -0.9975 -0.0269
vn -0.0269 -0.9975 -0.0649
vn 0.0269 -0.9975 -0.0649
vn 0.0269 0.9975 0.0648
vn -0.0648 0.9975 0.0269
vn 0.0648 0.9975 -0.0269
vn -0.0269 0.9975 -0.0648
vn 0.0000 1.0000 0.0000
vn -0.6882 0.2998 0.6606
vn -0.3629 -0.3176 0.8760
vn 0.8445 0.4055 0.3498
vn -0.0195 0.2998 -0.9538
vn 0.0648 0.9975 0.0269
vn -0.0269 0.9975 0.0649
vn -0.0648 0.9975 -0.0269
vn 0.0269 0.9975 -0.0649
vn -0.3498 0.4055 0.8445
vn -0.6607 0.2998 -0.6882
vn -0.8760 -0.3176 -0.3629
vn 0.9538 0.2998 -0.0195
vn 0.0195 0.2998 0.9538
vn -0.8445 0.4056 -0.3498
vn 0.3629 -0.3176 -0.8760
vn 0.6882 0.2998 -0.6606
vn -0.9538 0.2998 0.0195
vn 0.3498 0.4055 -0.8445
vn 0.8760 -0.3176 0.3629
vn 0.6607 0.2998 0.6882
vn 0.3681 0.2733 -0.8887
vn 0.9202 0.3907 -0.0254
vn -0.6327 0.3907 -0.6686
vn -0.3743 -0.2079 0.9037
vn -0.8887 0.2733 -0.3681
vn -0.0254 0.3907 -0.9202
vn 0.9037 -0.2078 0.3743
vn -0.6686 0.3907 0.6327
vn 0.6327 0.3907 0.6686
vn 0.3743 -0.2079 -0.9037
vn -0.9202 0.3907 0.0254
vn -0.3681 0.2733 0.8887
vn 0.8887 0.2733 0.3681
vn 0.6686 0.3907 -0.6327
vn -0.9037 -0.2079 -0.3743
vn 0.0254 0.3907 0.9202
vn 0.3285 -0.5131 -0.7930
vn 0.7930 -0.5131 -0.3285
vn 0.7930 -0.5131 0.3285
vn 0.3285 -0.5131 0.7930
vn -0.3285 -0.5131 0.7930
vn -0.7930 -0.5131 0.3285
vn -0.7930 -0.5131 -0.3285
vn -0.3285 -0.5131 -0.7930
vn -0.5838 -0.7751 -0.2418
vn 0.5838 -0.7751 -0.2418
vn -0.2595 0.7348 -0.6266
vn -0.6266 0.7348 -0.2595
vn 0.2418 -0.7751 0.5838
vn -0.6266 0.7348 0.2595
vn -0.5838 -0.7751 0.2418
vn -0.2596 0.7348 0.6266
vn 0.2596 0.7348 -0.6266
vn -0.2418 -0.7751 0.5838
vn 0.6266 0.7348 -0.2596
vn 0.6266 0.7348 0.2596
vn 0.5838 -0.7751 0.2418
vn -0.2418 -0.7751 -0.5838
vn 0.2418 -0.7751 -0.5838
vn 0.2596 0.7348 0.6266
vn 0.1876 -0.7947 0.5774
vn 0.6071 -0.7947 0.0000
vn -0.4911 -0.7947 0.3568
vn -0.4911 -0.7947 -0.3568
vn 0.1876 -0.7947 -0.5774
vn 0.9822 -0.1876 0.0000
vn 0.3035 -0.1876 0.9342
vn -0.7946 -0.1876 0.5774
vn -0.7946 -0.1876 -0.5774
vn 0.3035 -0.1876 -0.9342
vn 0.7946 0.1876 0.5774
vn -0.3035 0.1876 0.9342
vn -0.9822 0.1876 0.0000
vn -0.3035 0.1876 -0.9342
vn 0.7946 0.1876 -0.5774
vn 0.4911 0.7947 0.3568
vn -0.1876 0.7947 0.5774
vn -0.6071 0.7947 0.0000
vn -0.1876 0.7947 -0.5774
vn 0.4911 0.7947 -0.3568
vn 0.6000 -0.7947 0.0925
vn 0.2734 -0.7947 -0.5420
vn 0.0975 -0.7947 0.5992
vn -0.5398 -0.7947 0.2778
vn -0.4310 -0.7947 -0.4275
vn 0.4423 -0.1876 -0.8770
vn 0.9708 -0.1876 0.1496
vn 0.1577 -0.1876 0.9695
vn -0.8733 -0.1876 0.4495
vn -0.6974 -0.1876 -0.6917
vn 0.8733 0.1876 -0.4495
vn 0.6974 0.1876 0.6917
vn -0.4423 0.1876 0.8770
vn -0.9708 0.1876 -0.1496
vn -0.1577 0.1876 -0.9695
vn 0.5398 0.7947 -0.2778
vn 0.4310 0.7947 0.4275
vn -0.2734 0.7947 0.5420
vn -0.6000 0.7947 -0.0925
vn -0.0975 0.7947 -0.5992
usemtl Material.002
s off
f 21/1/1 20/2/1 17/3/1 11/4/1
f 15/5/2 14/6/2 46/7/2 47/8/2
f 27/9/3 26/10/3 15/11/3 16/12/3
f 33/13/4 32/14/4 13/15/4 14/16/4
f 39/17/5 38/18/5 10/19/5 12/20/5
f 20/2/6 27/9/6 16/12/6 17/3/6
f 26/10/7 33/13/7 14/16/7 15/11/7
f 32/21/8 39/17/8 12/20/8 13/22/8
f 38/18/9 21/1/9 11/4/9 10/19/9
f 3/23/10 2/24/10 23/25/10 36/26/10
f 36/26/11 23/25/11 22/27/11 37/28/11
f 37/28/12 22/27/12 21/1/12 38/18/12
f 5/29/13 4/30/13 41/31/13 30/32/13
f 30/32/14 41/31/14 40/33/14 31/34/14
f 31/34/15 40/33/15 39/17/15 32/21/15
f 7/35/16 6/36/16 35/37/16 24/38/16
f 24/38/17 35/37/17 34/39/17 25/40/17
f 25/40/18 34/39/18 33/13/18 26/10/18
f 9/41/19 8/42/19 29/43/19 18/44/19
f 18/44/20 29/43/20 28/45/20 19/46/20
f 19/46/21 28/45/21 27/9/21 20/2/21
f 4/30/22 3/23/22 36/26/22 41/31/22
f 41/31/23 36/26/23 37/28/23 40/33/23
f 40/33/24 37/28/24 38/18/24 39/17/24
f 6/36/25 5/47/25 30/48/25 35/37/25
f 35/37/26 30/48/26 31/49/26 34/39/26
f 34/39/27 31/49/27 32/14/27 33/13/27
f 8/42/28 7/35/28 24/38/28 29/43/28
f 29/43/29 24/38/29 25/40/29 28/45/29
f 28/45/30 25/40/30 26/10/30 27/9/30
f 2/24/31 9/41/31 18/44/31 23/25/31
f 23/25/32 18/44/32 19/46/32 22/27/32
f 22/27/33 19/46/33 20/2/33 21/1/33
f 13/50/34 12/51/34 44/52/34 45/53/34
f 10/54/35 11/55/35 43/56/35 42/57/35
f 11/55/36 17/58/36 49/59/36 43/56/36
f 16/60/37 15/5/37 47/8/37 48/61/37
f 14/6/38 13/62/38 45/63/38 46/7/38
f 12/51/39 10/54/39 42/57/39 44/52/39
f 17/58/40 16/60/40 48/61/40 49/59/40
f 62/64/41 63/65/41 79/66/41 78/67/41
f 63/65/42 69/68/42 85/69/42 79/66/42
f 69/68/43 68/70/43 84/71/43 85/69/43
f 68/70/44 67/72/44 83/73/44 84/71/44
f 85/74/45 84/75/45 92/76/45 93/77/45
f 83/78/46 82/79/46 90/80/46 91/81/46
f 81/82/47 80/83/47 88/84/47 89/85/47
f 78/86/48 79/87/48 87/88/48 86/89/48
f 79/87/49 85/74/49 93/77/49 87/88/49
f 84/75/50 83/78/50 91/81/50 92/76/50
f 82/79/51 81/90/51 89/91/51 90/80/51
f 80/83/52 78/86/52 86/89/52 88/84/52
f 64/92/53 62/64/53 78/67/53 80/93/53
f 65/94/54 64/92/54 80/93/54 81/95/54
f 66/96/55 65/97/55 81/98/55 82/99/55
f 67/72/56 66/96/56 82/99/56 83/73/56
f 77/100/57 71/101/57 87/102/57 93/103/57
f 70/104/58 72/105/58 88/106/58 86/107/58
f 75/108/59 76/109/59 92/110/59 91/111/59
f 73/112/60 74/113/60 90/114/60 89/115/60
f 73/112/61 76/109/61 75/108/61 74/113/61
f 70/104/61 71/101/61 77/100/61 72/105/61
f 72/105/61 77/100/61 76/116/61 73/117/61
f 133/118/62 132/119/62 120/120/62 112/121/62
f 135/122/63 134/123/63 110/124/63 111/125/63
f 132/119/64 131/126/64 121/127/64 120/120/64
f 131/126/65 130/128/65 113/129/65 121/127/65
f 117/130/66 116/131/66 124/132/66 125/133/66
f 111/125/67 110/124/67 118/134/67 119/135/67
f 113/129/68 112/121/68 120/120/68 121/127/68
f 115/136/69 114/137/69 122/138/69 123/139/69
f 127/140/70 126/141/70 123/139/70 122/138/70
f 128/142/71 127/140/71 122/138/71 114/137/71
f 130/143/72 133/144/72 112/121/72 113/129/72
f 126/141/73 129/145/73 115/136/73 123/139/73
f 139/146/74 138/147/74 117/130/74 125/133/74
f 140/148/75 139/146/75 125/133/75 124/132/75
f 129/149/76 128/150/76 114/137/76 115/136/76
f 141/151/77 140/148/77 124/132/77 116/131/77
f 136/152/78 135/153/78 111/125/78 119/135/78
f 137/154/79 136/152/79 119/135/79 118/134/79
f 138/155/80 141/156/80 116/131/80 117/130/80
f 134/157/81 137/154/81 118/134/81 110/124/81
f 98/158/82 99/159/82 128/150/82 129/149/82
f 106/160/83 98/161/83 129/145/83 126/141/83
f 99/162/84 107/163/84 127/140/84 128/142/84
f 107/163/85 106/160/85 126/141/85 127/140/85
f 96/164/86 97/165/86 133/144/86 130/143/86
f 104/166/87 96/167/87 130/128/87 131/126/87
f 105/168/88 104/166/88 131/126/88 132/119/88
f 97/169/89 105/168/89 132/119/89 133/118/89
f 94/170/90 102/171/90 137/154/90 134/157/90
f 102/171/91 103/172/91 136/152/91 137/154/91
f 103/172/92 95/173/92 135/153/92 136/152/92
f 95/174/93 94/175/93 134/123/93 135/122/93
f 100/176/94 101/177/94 141/156/94 138/155/94
f 101/178/95 109/179/95 140/148/95 141/151/95
f 109/179/96 108/180/96 139/146/96 140/148/96
f 108/180/97 100/181/97 138/147/97 139/146/97
f 142/182/98 151/183/98 150/184/98 143/185/98
f 143/185/99 150/184/99 152/186/99 144/187/99
f 144/187/100 152/186/100 153/188/100 145/189/100
f 145/189/101 153/188/101 154/190/101 146/191/101
f 146/191/102 154/190/102 155/192/102 147/193/102
f 147/193/103 155/192/103 156/194/103 148/195/103
f 148/195/104 156/194/104 157/196/104 149/197/104
f 149/198/105 157/199/105 151/183/105 142/182/105
f 157/196/106 156/194/106 164/200/106 165/201/106
f 152/186/107 150/184/107 158/202/107 160/203/107
f 177/204/108 178/205/108 170/206/108 169/207/108
f 176/208/109 177/204/109 169/207/109 168/209/109
f 154/190/110 153/188/110 161/210/110 162/211/110
f 174/212/111 176/208/111 168/209/111 166/213/111
f 156/194/112 155/192/112 163/214/112 164/200/112
f 175/215/113 174/212/113 166/213/113 167/216/113
f 167/217/61 166/218/61 158/219/61 159/220/61
f 166/218/61 168/221/61 160/222/61 158/219/61
f 168/221/61 169/223/61 161/224/61 160/222/61
f 169/223/61 170/225/61 162/226/61 161/224/61
f 170/225/61 171/227/61 163/228/61 162/226/61
f 171/227/61 172/229/61 164/230/61 163/228/61
f 172/229/61 173/231/61 165/232/61 164/230/61
f 173/231/61 167/217/61 159/220/61 165/232/61
f 178/205/114 179/233/114 171/234/114 170/206/114
f 155/192/115 154/190/115 162/211/115 163/214/115
f 179/233/116 180/235/116 172/236/116 171/234/116
f 180/235/117 181/237/117 173/238/117 172/236/117
f 153/188/118 152/186/118 160/203/118 161/210/118
f 151/183/119 157/199/119 165/239/119 159/240/119
f 150/184/120 151/183/120 159/240/120 158/202/120
f 181/237/121 175/215/121 167/216/121 173/238/121
f 177/204/61 180/235/61 179/233/61 178/205/61
f 176/208/61 181/237/61 180/235/61 177/204/61
f 174/212/61 175/215/61 181/237/61 176/208/61
usemtl Material.003
f 50/241/122 51/242/122 52/243/122
f 51/242/123 50/241/123 55/244/123
f 50/245/124 52/246/124 53/247/124
f 50/248/125 53/249/125 54/250/125
f 50/241/126 54/251/126 55/244/126
f 51/242/127 55/244/127 60/252/127
f 52/253/128 51/254/128 56/255/128
f 53/247/129 52/246/129 57/256/129
f 54/250/130 53/249/130 58/257/130
f 55/258/131 54/259/131 59/260/131
f 51/254/132 60/261/132 56/255/132
f 52/246/133 56/262/133 57/256/133
f 53/263/134 57/264/134 58/265/134
f 54/250/135 58/257/135 59/266/135
f 55/258/136 59/260/136 60/267/136
f 56/255/137 60/261/137 61/268/137
f 57/264/138 56/269/138 61/270/138
f 58/265/139 57/264/139 61/270/139
f 59/271/140 58/265/140 61/270/140
f 60/267/141 59/260/141 61/272/141
f 182/273/142 183/274/142 184/275/142
f 183/274/143 182/273/143 187/276/143
f 182/277/144 184/278/144 185/279/144
f 182/280/145 185/281/145 186/282/145
f 182/273/146 186/283/146 187/276/146
f 183/274/147 187/276/147 192/284/147
f 184/285/148 183/286/148 188/287/148
f 185/279/149 184/278/149 189/288/149
f 186/282/150 185/281/150 190/289/150
f 187/290/151 186/291/151 191/292/151
f 183/286/152 192/293/152 188/287/152
f 184/278/153 188/294/153 189/288/153
f 185/295/154 189/296/154 190/297/154
f 186/282/155 190/289/155 191/298/155
f 187/290/156 191/292/156 192/299/156
f 188/287/157 192/293/157 193/300/157
f 189/296/158 188/301/158 193/302/158
f 190/297/159 189/296/159 193/302/159
f 191/303/160 190/297/160 193/302/160
f 192/299/161 191/292/161 193/304/161
