# Blender v2.79 (sub 0) OBJ File: 'Roteador.blend'
# www.blender.org
mtllib Roteador.mtl
o Cube.002_Cube.006
v 1.073841 -0.039491 -1.929780
v 1.284692 0.218989 -1.935050
v 1.284693 0.755802 -1.935046
v 0.678793 -0.039491 -1.929780
v 1.284692 0.218989 1.327865
v 1.284691 0.755802 1.327866
v -1.978220 0.755802 1.327864
v -1.978220 0.755802 -1.935047
v 0.678794 -0.039491 1.327865
v 1.073841 -0.039491 1.327865
v 0.678794 0.567850 -1.929780
v 1.073841 0.567850 -1.929780
v 0.678793 -0.039491 -2.127900
v 1.284692 0.218989 -1.771902
v 1.525915 0.082471 -0.303591
v 1.284692 0.218989 1.164719
v -1.978220 0.218989 1.164719
v -1.978220 0.082471 -0.303592
v -1.978220 0.218989 -1.771903
v 1.390875 0.853407 -1.771901
v 1.441498 1.108921 -0.303590
v 1.390873 0.853407 1.164720
v -1.978220 0.853407 1.164718
v 1.286869 0.673285 1.164720
v 1.228742 0.819346 -0.303591
v -1.965958 1.108921 -0.303592
v 1.286870 0.673285 -1.771901
v -1.978220 0.673285 -1.771902
v -1.978220 0.819346 -0.303592
v -1.978220 0.673285 1.164719
v 1.073841 -0.039491 -2.127900
v -1.427572 0.264180 -1.929780
v 1.284691 0.603392 1.327866
v 1.284693 0.603392 -1.935050
v -1.978220 0.853407 -1.771902
v 1.525915 0.673285 -0.303591
v 1.195960 0.673285 -1.771901
v 1.195960 0.819346 -0.303591
v 1.195959 0.673285 1.164720
v 1.195960 0.673285 -0.303591
v -1.978220 0.218989 0.063486
v -1.978220 0.782831 0.063486
v -1.978220 1.006387 0.063486
v 1.420548 0.673285 0.063487
v 1.195959 0.673285 0.063487
v 1.420004 0.218989 0.063486
v 1.390873 1.006387 0.063487
v 1.243273 0.782831 0.063487
v 1.195959 0.782831 0.063487
v 1.390604 0.218989 -0.670669
v 1.390874 1.006387 -0.670668
v 1.243274 0.782831 -0.670668
v 1.195960 0.782831 -0.670668
v -1.978220 0.218989 -0.670670
v -1.978220 0.782831 -0.670669
v -1.978220 1.006387 -0.670669
v 1.391148 0.673285 -0.670668
v 1.195960 0.673285 -0.670668
v -1.822619 0.264180 -1.929780
v 0.678798 2.917668 -2.127903
v 1.073838 2.917668 -2.127903
v -1.427572 -0.039491 -2.325105
v 1.073841 0.567850 1.327865
v 0.678793 0.567850 1.327865
v -1.822619 -0.039491 -2.325105
v 1.073841 3.167762 -2.325108
v 0.678794 3.167762 -2.325109
v 1.073838 2.419811 -2.021716
v 0.678798 2.419811 -2.021717
v 1.073841 -0.039491 1.525069
v 0.678794 -0.039491 1.525069
v 1.073836 2.917668 1.525073
v 0.678796 2.917668 1.525073
v 0.678793 -0.039491 -2.325105
v 1.073841 -0.039491 -2.325105
v 0.678793 0.264180 -1.929780
v 1.073841 0.264180 -1.929780
v -1.822614 2.419811 -2.021717
v -1.427575 2.419811 -2.021716
v -1.822619 3.167762 -2.325109
v -1.427571 3.167762 -2.325108
v 0.678793 3.167762 1.722278
v 1.073841 3.167762 1.722279
v -1.427575 2.917668 -2.127903
v -1.822614 2.917668 -2.127903
v -1.427572 -0.039491 -2.127899
v -1.978220 0.218989 -1.935051
v -1.822619 -0.039491 -2.127899
v -1.978220 0.218989 1.327864
v -1.427571 0.567850 -1.929780
v -1.822619 0.567850 -1.929780
v 0.678796 2.419811 1.419801
v 1.073836 2.419811 1.419801
v -1.822619 -0.039491 -1.929780
v -1.978220 0.603392 -1.935051
v -1.427572 -0.039491 -1.929780
v -1.978220 0.603392 1.327864
v -1.822619 0.264180 1.327865
v -1.427571 0.264180 1.327865
v -1.822619 -0.039491 1.722275
v -1.427571 -0.039491 1.722275
v -1.427577 2.419811 1.419801
v -1.822617 2.419811 1.419801
v -1.427573 3.167762 1.722279
v -1.822619 3.167762 1.722278
v 1.073841 -0.039491 1.722275
v 0.678794 -0.039491 1.722275
v -1.822617 2.917668 1.525073
v -1.427577 2.917668 1.525073
v 1.073841 0.264180 1.327865
v 0.678794 0.264180 1.327865
v -1.822619 -0.039491 1.525069
v -1.427571 -0.039491 1.525069
v -1.822619 0.567850 1.327865
v -1.427573 0.567850 1.327865
v -1.427571 -0.039491 1.327865
v -1.822619 -0.039491 1.327865
vt 0.726200 0.366604
vt 0.733810 0.378303
vt 0.722035 0.507351
vt 0.713429 0.506565
vt 0.787343 0.242019
vt 0.802712 0.243091
vt 0.793412 0.229912
vt 0.649486 0.075818
vt 0.641763 0.074066
vt 0.643872 0.082250
vt 0.650834 0.083867
vt 0.751899 0.402309
vt 0.736254 0.401527
vt 0.755529 0.378233
vt 0.726240 0.366497
vt 0.733858 0.378203
vt 0.722106 0.507351
vt 0.713493 0.506567
vt 0.846548 0.054291
vt 0.685989 0.009910
vt 0.679489 0.027663
vt 0.836735 0.070895
vt 0.750840 0.480314
vt 0.760873 0.508370
vt 0.751153 0.508593
vt 0.751066 0.494049
vt 0.731646 0.508035
vt 0.732475 0.493630
vt 0.751032 0.494044
vt 0.751117 0.508588
vt 0.792143 0.160228
vt 0.787343 0.242019
vt 0.778661 0.242330
vt 0.775743 0.160815
vt 0.650834 0.083867
vt 0.643872 0.082250
vt 0.641763 0.074066
vt 0.649486 0.075818
vt 0.651742 0.025130
vt 0.641097 0.023990
vt 0.638272 0.006545
vt 0.651526 0.007912
vt 0.793412 0.229912
vt 0.802712 0.243091
vt 0.787050 0.324057
vt 0.806852 0.325340
vt 0.813515 0.353028
vt 0.786948 0.351403
vt 0.832909 0.279315
vt 0.853325 0.279300
vt 0.850189 0.286634
vt 0.832914 0.286647
vt 0.669850 0.080224
vt 0.668155 0.087649
vt 0.760838 0.508365
vt 0.755495 0.378229
vt 0.763722 0.366866
vt 0.769516 0.508009
vt 0.668155 0.087649
vt 0.669850 0.080224
vt 0.679489 0.027663
vt 0.832920 0.137653
vt 0.850195 0.137666
vt 0.853331 0.145001
vt 0.832915 0.144985
vt 0.832900 0.194703
vt 0.853316 0.194711
vt 0.853316 0.212284
vt 0.826765 0.212284
vt 0.782570 0.351559
vt 0.781595 0.324253
vt 0.792143 0.160228
vt 0.801146 0.132699
vt 0.774770 0.133644
vt 0.775743 0.160815
vt 0.773497 0.323738
vt 0.771772 0.350873
vt 0.781595 0.324253
vt 0.778661 0.242330
vt 0.806852 0.325340
vt 0.787050 0.324057
vt 0.853316 0.229447
vt 0.832900 0.229454
vt 0.641097 0.023990
vt 0.651742 0.025130
vt 0.773497 0.323738
vt 0.487327 0.042651
vt 0.493362 0.092601
vt 0.818181 0.117106
vt 0.836735 0.070895
vt 0.482893 0.025554
vt 0.818181 0.117106
vt 0.733453 0.479783
vt 0.732509 0.493635
vt 0.731681 0.508040
vt 0.634929 0.235770
vt 0.617482 0.231857
vt 0.617482 0.231857
vt 0.610566 0.230302
vt 0.816336 0.124516
vt 0.754909 0.184389
vt 0.755474 0.360723
vt 0.733754 0.360792
vt 0.733190 0.184459
vt 0.493362 0.092601
vt 0.487327 0.042651
vt 0.751948 0.402202
vt 0.736274 0.401424
vt 0.755549 0.378139
vt 0.750876 0.480300
vt 0.760866 0.508368
vt 0.751189 0.508590
vt 0.751102 0.494041
vt 0.763756 0.366871
vt 0.769551 0.508014
vt 0.499493 0.100929
vt 0.733776 0.378298
vt 0.733720 0.360787
vt 0.755440 0.360718
vt 0.750805 0.480309
vt 0.733418 0.479779
vt 0.736220 0.401522
vt 0.751865 0.402304
vt 0.754878 0.184384
vt 0.733158 0.184453
vt 0.610566 0.230302
vt 0.722000 0.507345
vt 0.733482 0.479769
vt 0.732539 0.493626
vt 0.731710 0.508037
vt 0.754981 0.184544
vt 0.755498 0.360651
vt 0.733806 0.360715
vt 0.733289 0.184608
vt 0.499493 0.100929
vt 0.726166 0.366599
vt 0.713395 0.506560
vt 0.634929 0.235770
vt 0.731646 0.508035
vt 0.732475 0.493624
vt 0.751038 0.494039
vt 0.751125 0.508588
vt 0.760802 0.508367
vt 0.755487 0.378137
vt 0.763722 0.366769
vt 0.769488 0.508012
vt 0.733796 0.378201
vt 0.733744 0.360713
vt 0.755436 0.360649
vt 0.816336 0.124516
vt 0.750813 0.480298
vt 0.733418 0.479767
vt 0.736212 0.401422
vt 0.751885 0.402201
vt 0.754920 0.184543
vt 0.733229 0.184607
vt 0.722042 0.507349
vt 0.763784 0.366771
vt 0.769551 0.508014
vt 0.726177 0.366495
vt 0.713429 0.506565
vt 0.857044 0.137671
vt 0.857038 0.286629
vn 1.0000 0.0000 0.0000
vn 0.8372 -0.4834 0.2557
vn -1.0000 -0.0000 0.0000
vn -0.0000 0.2086 0.9780
vn 0.0000 -0.9373 -0.3486
vn 0.0000 0.0000 1.0000
vn -0.0000 1.0000 0.0000
vn -0.9996 0.0239 -0.0122
vn 0.8372 -0.4834 -0.2557
vn 0.8164 -0.5734 0.0685
vn 1.0000 -0.0026 0.0061
vn 0.8460 -0.5273 0.0796
vn 1.0000 -0.0026 -0.0061
vn 0.9385 -0.0005 -0.3453
vn 0.9955 -0.0030 -0.0950
vn -0.0000 -0.9951 0.0990
vn 0.8164 -0.5734 -0.0685
vn 0.9610 -0.0005 0.2766
vn 0.0000 -0.9951 -0.0990
vn 0.9926 -0.0030 0.1212
vn 0.8460 -0.5273 -0.0796
vn -0.9996 0.0239 0.0122
vn -0.0000 0.9905 0.1376
vn 0.0000 -1.0000 0.0000
vn -0.0000 0.9631 0.2690
vn 0.0000 0.0000 -1.0000
vn -0.0000 -0.9373 0.3486
vn 0.0000 0.9905 -0.1376
vn -0.0000 0.0496 0.9988
vn -0.0000 0.6192 0.7852
vn 0.0000 0.2069 -0.9784
vn 0.0000 0.9631 -0.2690
vn 0.0000 0.8581 -0.5134
vn 0.0000 0.0496 -0.9988
vn -0.0000 0.8581 0.5134
vn 0.0000 0.6192 -0.7852
vn 0.9999 -0.0000 -0.0133
vn 0.9999 0.0000 0.0133
usemtl Material.003
s off
f 66/1/1 61/2/1 31/3/1 75/4/1
f 24/5/2 22/6/2 6/7/2
f 28/8/3 35/9/3 8/10/3 95/11/3
f 69/12/4 68/13/4 61/2/4 60/14/4
f 82/15/3 73/16/3 71/17/3 107/18/3
f 15/19/5 18/20/5 54/21/5 50/22/5
f 11/23/3 69/12/3 60/14/3 13/24/3 4/25/3 76/26/3
f 96/27/6 32/28/6 59/29/6 94/30/6
f 57/31/7 27/32/7 37/33/7 58/34/7
f 97/35/3 7/36/3 23/37/3 30/38/3
f 42/39/8 43/40/8 26/41/8 29/42/8
f 3/43/9 20/44/9 27/32/9
f 52/45/10 51/46/10 21/47/10 25/48/10
f 30/38/3 23/37/3 43/40/3 42/39/3
f 16/49/11 24/50/11 33/51/11 5/52/11
f 19/53/3 28/8/3 95/11/3 87/54/3
f 88/55/3 85/56/3 80/57/3 65/58/3
f 89/59/3 97/35/3 30/38/3 17/60/3
f 41/61/3 42/39/3 29/42/3 18/20/3
f 27/32/12 20/44/12 51/46/12 52/45/12
f 2/62/13 34/63/13 27/64/13 14/65/13
f 50/66/14 57/67/14 36/68/14 15/69/14
f 14/65/15 27/64/15 57/67/15 50/66/15
f 17/60/3 30/38/3 42/39/3 41/61/3
f 52/45/16 25/48/16 38/70/16 53/71/16
f 44/72/7 36/73/7 40/74/7 45/75/7
f 45/76/1 40/77/1 38/70/1 49/78/1
f 27/32/16 52/45/16 53/71/16 37/33/16
f 39/79/1 45/76/1 49/78/1
f 25/48/17 21/47/17 47/80/17 48/81/17
f 15/69/18 36/68/18 44/82/18 46/83/18
f 25/48/19 48/81/19 49/78/19 38/70/19
f 24/5/7 44/72/7 45/75/7 39/79/7
f 46/83/20 44/82/20 24/50/20 16/49/20
f 48/81/21 47/80/21 22/6/21 24/5/21
f 29/42/22 26/41/22 56/84/22 55/85/22
f 18/20/3 29/42/3 55/85/3 54/21/3
f 40/77/1 58/86/1 53/71/1 38/70/1
f 36/73/7 57/31/7 58/34/7 40/74/7
f 58/86/1 37/33/1 53/71/1
f 54/21/3 55/85/3 28/8/3 19/53/3
f 55/85/3 56/84/3 35/9/3 28/8/3
f 48/81/19 24/5/19 39/79/19 49/78/19
f 47/87/23 43/40/23 23/37/23 22/88/23
f 16/89/24 17/60/24 41/61/24 46/90/24
f 21/91/25 26/41/25 43/40/25 47/87/25
f 50/22/24 54/21/24 19/53/24 14/92/24
f 31/3/1 61/2/1 68/13/1 12/93/1 77/94/1 1/95/1
f 89/59/6 5/96/6 33/97/6 97/35/6
f 34/98/26 95/11/26 8/10/26 3/99/26
f 46/90/27 41/61/27 18/20/27 15/19/27
f 89/59/24 17/60/24 16/89/24 5/100/24
f 74/101/26 67/102/26 66/103/26 75/104/26
f 20/105/28 35/9/28 56/84/28 51/106/28
f 11/23/29 12/93/29 68/13/29 69/12/29
f 60/14/30 61/2/30 66/103/30 67/102/30
f 93/107/31 92/108/31 73/16/31 72/109/31
f 51/106/32 56/84/32 26/41/32 21/91/32
f 63/110/1 93/107/1 72/109/1 70/111/1 10/112/1 110/113/1
f 13/24/3 60/14/3 67/114/3 74/115/3
f 3/116/33 8/10/33 35/9/33 20/105/33
f 85/56/30 84/117/30 81/118/30 80/119/30
f 1/95/6 77/94/6 76/26/6 4/25/6
f 91/120/29 90/121/29 79/122/29 78/123/29
f 65/124/26 80/119/26 81/118/26 62/125/26
f 6/126/6 7/36/6 97/35/6 33/97/6
f 86/127/1 84/117/1 79/122/1 90/121/1 32/28/1 96/27/1
f 71/17/3 73/16/3 92/108/3 64/128/3 111/129/3 9/130/3
f 106/131/6 83/132/6 82/133/6 107/134/6
f 63/110/34 64/128/34 92/108/34 93/107/34
f 22/88/35 23/37/35 7/36/35 6/135/35
f 91/120/3 78/123/3 85/56/3 88/55/3 94/30/3 59/29/3
f 78/123/4 79/122/4 84/117/4 85/56/4
f 81/136/1 84/117/1 86/127/1 62/137/1
f 34/98/26 2/138/26 87/54/26 95/11/26
f 117/139/26 98/140/26 99/141/26 116/142/26
f 72/109/36 73/16/36 82/133/36 83/132/36
f 113/143/1 109/144/1 104/145/1 101/146/1
f 109/144/36 108/147/36 105/148/36 104/149/36
f 14/92/24 19/53/24 87/54/24 2/150/24
f 115/151/34 114/152/34 103/153/34 102/154/34
f 101/155/6 104/149/6 105/148/6 100/156/6
f 112/157/3 108/147/3 103/153/3 114/152/3 98/140/3 117/139/3
f 70/111/1 72/109/1 83/158/1 106/159/1
f 9/130/26 111/129/26 110/113/26 10/112/26
f 115/151/1 102/154/1 109/144/1 113/143/1 116/142/1 99/141/1
f 102/154/31 103/153/31 108/147/31 109/144/31
f 105/160/3 108/147/3 112/157/3 100/161/3
f 34/63/37 3/162/37 27/64/37
f 33/51/38 24/50/38 6/163/38
