# Blender v2.79 (sub 0) OBJ File: 'Trem.blend'
# www.blender.org
mtllib vagao.mtl
o Cube_Cube.002
v -6.506473 2.375850 -17.396246
v -6.506474 2.375850 -16.344107
v -6.515172 2.375848 -16.344107
v -6.515171 2.375850 -17.396246
v -4.280026 1.362217 -3.632863
v -4.280026 1.362217 -2.100409
v 2.502994 1.362217 -2.100409
v 2.502994 1.362217 -3.632862
v -4.162570 0.980709 -2.100409
v -4.162570 0.980709 -1.951912
v 2.339052 0.980709 -3.781360
v -4.162570 0.980709 -3.781360
v 2.339052 0.980709 -3.632862
v 2.339052 0.980709 -1.951912
v -4.162570 0.980709 -3.632863
v 2.339052 0.980709 -2.100409
v 2.658074 4.106541 -3.866633
v 2.658074 4.106541 -1.866633
v -4.209836 4.106541 -3.866633
v -4.209836 4.106541 -1.866633
v 2.658074 4.528231 -3.199966
v 2.658074 4.528231 -2.533300
v -4.209836 4.528231 -2.533299
v -4.209836 4.528231 -3.199966
v 2.658074 1.347935 -3.199966
v 2.658074 1.347935 -3.866633
v -4.209836 1.347935 -1.866633
v 2.658074 1.347935 -1.866633
v -4.209836 1.347935 -2.533300
v -4.209836 1.347935 -3.866633
v 2.658074 1.347935 -2.533299
v -4.209836 1.347935 -3.199966
v 1.502244 4.106541 -1.866633
v 0.550231 4.106541 -1.866633
v -2.305810 4.106541 -1.866633
v -3.257823 4.106541 -1.866633
v -3.257823 4.106541 -3.866633
v -2.305810 4.106541 -3.866633
v 0.550231 4.106541 -3.866633
v 1.502244 4.106541 -3.866633
v 1.502244 4.528231 -2.533300
v 0.550230 4.528231 -2.533300
v -2.305810 4.528231 -2.533299
v -3.257823 4.528231 -2.533299
v 1.502244 4.528231 -3.199966
v 0.550230 4.528231 -3.199966
v -2.305810 4.528231 -3.199966
v -3.257823 4.528231 -3.199966
v 1.502244 4.353340 -1.866633
v 0.550231 4.353340 -1.866633
v -2.305810 4.353340 -1.866633
v -3.257823 4.353340 -1.866633
v -3.257823 4.353340 -3.866633
v -2.305810 4.353340 -3.866633
v 0.550231 4.353340 -3.866633
v 1.502244 4.353340 -3.866633
v 1.502244 4.775029 -2.533300
v 0.550230 4.775029 -2.533300
v -2.305810 4.775029 -2.533299
v -3.257823 4.775029 -2.533299
v 1.502244 4.775029 -3.199966
v 0.550230 4.775029 -3.199966
v -2.305810 4.775029 -3.199966
v -3.257823 4.775029 -3.199966
v 2.879534 1.679198 -2.964277
v 2.879534 1.679198 -3.119838
v 2.879534 2.249382 -3.119838
v 2.879534 2.249382 -2.964277
v 2.879534 1.759875 -2.964277
v 2.879534 1.759875 -3.119838
v 2.879534 2.168705 -3.119838
v 2.879534 2.168705 -2.964277
v 3.423272 2.249382 -2.615136
v 3.423272 2.249382 -2.770697
v 3.423272 1.679198 -2.615136
v 3.423272 1.679198 -2.770697
v 3.423272 2.059709 -2.615136
v 3.423272 2.059709 -2.770697
v 3.423272 1.868871 -2.615136
v 3.423272 1.868871 -2.770697
v 3.423272 2.059709 -2.964277
v 3.423272 2.059709 -3.119838
v 3.300376 2.059709 -2.964277
v 3.300376 2.059709 -3.119838
v 3.423272 2.168705 -2.964277
v 3.300376 2.168705 -2.964277
v 3.300376 2.168705 -3.119838
v 3.423272 2.168705 -2.770697
v 3.300376 1.868871 -2.770697
v 3.300376 1.868871 -2.615136
v 3.300376 2.059709 -2.770697
v 3.300376 2.059709 -2.615136
v 3.300376 1.759875 -2.770697
v 3.300376 1.759875 -2.615136
v 2.879534 2.168705 -2.770697
v 2.879534 2.168705 -2.615136
v 3.300376 2.168705 -2.770697
v 3.300376 2.168705 -2.615136
v 2.879534 1.759875 -2.770697
v 2.879534 1.759875 -2.615136
v 3.870883 2.024924 -2.964277
v 3.870883 2.024924 -3.119838
v 3.870883 1.909553 -2.964277
v 3.313480 1.909553 -2.964277
v 3.313480 1.909553 -3.119838
v 3.870883 1.909553 -3.119838
v 3.313480 2.024924 -3.119838
v 3.313480 2.024924 -2.964277
v 3.870883 2.024924 -2.615136
v 3.870883 2.024924 -2.770697
v 3.870883 1.909553 -2.615136
v 3.313480 1.909553 -2.615136
v 3.313480 1.909553 -2.770697
v 3.870883 1.909553 -2.770697
v 3.313480 2.024924 -2.770697
v 3.313480 2.024924 -2.615136
v 3.249434 1.819353 -2.553123
v 3.249434 1.819353 -3.179259
v 3.450625 1.816873 -2.553123
v 3.450625 1.816873 -3.179259
v 3.515155 2.007451 -2.553123
v 3.515155 2.007451 -3.179259
v 3.353845 2.127715 -2.553123
v 3.353845 2.127715 -3.179259
v 3.189620 2.011464 -2.553123
v 3.189620 2.011464 -3.179259
v 2.879534 1.679198 -2.770697
v 2.879534 1.679198 -2.615136
v 2.879534 2.249382 -2.615136
v 2.879534 2.249382 -2.770697
v 3.423272 1.759875 -2.770697
v 3.423272 1.759875 -2.615136
v 3.423272 2.168705 -2.615136
v 2.764163 2.249382 -2.770697
v 2.764163 2.249382 -2.615136
v 2.764163 1.679198 -2.615136
v 2.764163 1.679198 -2.770697
v 2.664877 1.862114 -2.553123
v 2.664877 1.862114 -3.179259
v 2.853337 1.791636 -2.553123
v 2.853337 1.791636 -3.179259
v 2.978602 1.949092 -2.553123
v 2.978602 1.949092 -3.179259
v 2.867561 2.116885 -2.553123
v 2.867561 2.116885 -3.179259
v 2.673668 2.063128 -2.553123
v 2.673668 2.063128 -3.179259
v 2.719424 2.024924 -2.964277
v 2.719424 2.024924 -3.119838
v 2.719424 1.909553 -2.964277
v 1.802201 1.909553 -2.964277
v 1.802201 1.909553 -3.119838
v 2.719424 1.909553 -3.119838
v 1.802201 2.024924 -3.119838
v 1.802201 2.024924 -2.964277
v 2.719424 2.024924 -2.615136
v 2.719424 2.024924 -2.770697
v 2.719424 1.909553 -2.615136
v 1.802201 1.909553 -2.615136
v 1.802201 1.909553 -2.770697
v 2.719424 1.909553 -2.770697
v 1.802201 2.024924 -2.770697
v 1.802201 2.024924 -2.615136
v -4.280026 1.362217 -1.951912
v -4.280026 1.362217 -3.781360
v 2.502994 1.362217 -1.951912
v 2.502994 1.362217 -3.781360
v -4.345714 1.347935 -1.866635
v 2.522196 1.347935 -3.866635
v -4.345714 1.347935 -3.866635
v 2.522196 1.347935 -1.866635
v 3.423272 2.168705 -3.119838
v 3.423272 1.759875 -3.119838
v 3.423272 1.759875 -2.964277
v 3.423272 2.249382 -3.119838
v 3.423272 2.249382 -2.964277
v 3.423272 1.679198 -3.119838
v 3.423272 1.679198 -2.964277
v 2.764163 1.679198 -2.964277
v 2.764163 1.679198 -3.119838
v 2.764163 2.249382 -3.119838
v 2.764163 2.249382 -2.964277
vt 0.537662 0.825854
vt 0.534294 0.825854
vt 0.534294 0.816802
vt 0.537662 0.816802
vt 0.546311 0.665681
vt 0.546311 0.819465
vt 0.537662 0.669398
vt 0.534294 0.816802
vt 0.534295 0.669398
vt 0.537662 0.669398
vt 0.537662 0.816802
vt 0.534295 0.669398
vt 0.534295 0.659984
vt 0.537662 0.659984
vt 0.537662 0.825854
vt 0.534294 0.825854
vt 0.525645 0.819465
vt 0.525646 0.665681
vt 0.534295 0.659984
vt 0.537662 0.659984
vt 0.546311 0.665681
vt 0.546311 0.819465
vt 0.525645 0.819465
vt 0.525646 0.665681
vt 0.705257 0.723911
vt 0.775784 0.722653
vt 0.770948 0.737966
vt 0.705673 0.739686
vt 0.973161 0.705687
vt 0.902634 0.706946
vt 0.907471 0.691633
vt 0.972746 0.689912
vt 0.972826 0.738131
vt 0.907919 0.736745
vt 0.902900 0.720620
vt 0.973161 0.722445
vt 0.705592 0.691467
vt 0.770499 0.692853
vt 0.775519 0.708979
vt 0.705257 0.707153
vt 0.969376 0.899726
vt 0.904469 0.898340
vt 0.968463 0.527402
vt 0.903188 0.529123
vt 0.927713 0.608819
vt 0.927713 0.543171
vt 0.944732 0.543171
vt 0.944732 0.608819
vt 0.921736 0.832694
vt 0.949372 0.876386
vt 0.933198 0.876386
vt 0.905561 0.832694
vt 0.921736 0.595535
vt 0.921736 0.639226
vt 0.905561 0.639226
vt 0.905561 0.595535
vt 0.949372 0.682918
vt 0.933198 0.682918
vt 0.949372 0.551843
vt 0.933198 0.551843
vt 0.949372 0.745310
vt 0.949372 0.682918
vt 0.933198 0.682918
vt 0.933198 0.745310
vt 0.769669 0.704149
vt 0.769669 0.736745
vt 0.746843 0.736745
vt 0.746843 0.704149
vt 0.769669 0.704149
vt 0.769658 0.736745
vt 0.746832 0.736738
vt 0.746843 0.704141
vt 0.796679 0.704149
vt 0.796679 0.736745
vt 0.796679 0.704158
vt 0.796667 0.736755
vt 0.719833 0.736745
vt 0.719833 0.704149
vt 0.719822 0.736728
vt 0.719833 0.704132
vt 0.949372 0.745310
vt 0.921736 0.789002
vt 0.905561 0.789002
vt 0.933198 0.745310
vt 0.949372 0.876385
vt 0.921736 0.832693
vt 0.905561 0.832693
vt 0.933198 0.876385
vt 0.921736 0.789001
vt 0.905561 0.789001
vt 0.921736 0.595534
vt 0.949372 0.551842
vt 0.933198 0.551842
vt 0.905561 0.595534
vt 0.921736 0.639226
vt 0.905561 0.639226
vt 0.927713 0.608819
vt 0.927304 0.543171
vt 0.944732 0.543171
vt 0.944732 0.608819
vt 0.876553 0.184353
vt 0.876553 0.190984
vt 0.873115 0.190984
vt 0.873115 0.184353
vt 0.341842 0.815285
vt 0.329489 0.815285
vt 0.329488 0.807073
vt 0.341842 0.807070
vt 0.341840 0.858459
vt 0.348247 0.815285
vt 0.348246 0.858459
vt 0.849939 0.184353
vt 0.849939 0.190984
vt 0.341842 0.761056
vt 0.329489 0.761057
vt 0.873115 0.214159
vt 0.876553 0.214159
vt 0.876553 0.161178
vt 0.873115 0.161178
vt 0.323084 0.858459
vt 0.323083 0.815285
vt 0.329489 0.858459
vt 0.832163 0.378967
vt 0.860167 0.378967
vt 0.860167 0.398596
vt 0.832163 0.398591
vt 0.910299 0.378967
vt 0.932424 0.378967
vt 0.932424 0.398758
vt 0.910294 0.398596
vt 0.882306 0.378978
vt 0.882307 0.398600
vt 0.882294 0.378967
vt 0.910299 0.378967
vt 0.910299 0.398591
vt 0.882294 0.398591
vt 0.860169 0.378967
vt 0.882294 0.378967
vt 0.882294 0.398591
vt 0.860169 0.398591
vt 0.932424 0.378967
vt 0.932424 0.398758
vt 0.910294 0.378974
vt 0.910299 0.398591
vt 0.341857 0.764150
vt 0.341857 0.808130
vt 0.329277 0.808130
vt 0.329277 0.764150
vt 0.832161 0.378967
vt 0.832163 0.398596
vt 0.329277 0.858636
vt 0.329277 0.814656
vt 0.341857 0.814656
vt 0.341857 0.858636
vt 0.860169 0.378967
vt 0.860169 0.398591
vt 0.322751 0.858636
vt 0.322752 0.814656
vt 0.832163 0.378967
vt 0.832163 0.398591
vt 0.932424 0.378967
vt 0.932424 0.398758
vt 0.329489 0.761057
vt 0.341840 0.761057
vt 0.341840 0.807070
vt 0.329489 0.807070
vt 0.859208 0.285221
vt 0.859343 0.244209
vt 0.883422 0.252123
vt 0.883340 0.277470
vt 0.859296 0.285494
vt 0.859119 0.244485
vt 0.883258 0.252210
vt 0.883368 0.277557
vt 0.859230 0.244405
vt 0.859500 0.285562
vt 0.844415 0.265080
vt 0.859217 0.244485
vt 0.859296 0.285494
vt 0.844359 0.265019
vt 0.995216 0.177192
vt 0.995216 0.168226
vt 0.963094 0.168162
vt 0.963097 0.177192
vt 0.995216 0.161579
vt 0.963097 0.161579
vt 0.995216 0.168226
vt 0.995216 0.177192
vt 0.963097 0.177192
vt 0.963097 0.168162
vt 0.995216 0.183839
vt 0.963097 0.183887
vt 0.995216 0.192803
vt 0.963097 0.192915
vt 0.995216 0.183839
vt 0.963099 0.183887
vt 0.995216 0.192803
vt 0.963102 0.192915
vt 0.995216 0.161579
vt 0.963097 0.161579
vt 0.883388 0.277616
vt 0.883339 0.252269
vt 0.679786 0.681208
vt 0.679786 0.626198
vt 0.697464 0.626198
vt 0.697464 0.681208
vt 0.750497 0.681208
vt 0.750497 0.626198
vt 0.768174 0.626198
vt 0.768174 0.681208
vt 0.844309 0.265054
vt 0.732819 0.681208
vt 0.732819 0.626198
vt 0.715140 0.681208
vt 0.715140 0.626198
vt 0.348384 0.858636
vt 0.348384 0.814656
vt 0.899729 0.190984
vt 0.899729 0.184353
vt 0.341842 0.858459
vt 0.341840 0.815285
vt 0.348247 0.815285
vt 0.348247 0.858459
vt 0.329489 0.815285
vt 0.323083 0.858459
vt 0.323083 0.815285
vt 0.329489 0.858459
vt 0.349145 0.858362
vt 0.341183 0.858362
vt 0.341183 0.815127
vt 0.349145 0.815127
vt 0.330444 0.815127
vt 0.330444 0.858362
vt 0.322480 0.858362
vt 0.322480 0.815127
vt 0.330444 0.759838
vt 0.341183 0.759838
vt 0.341183 0.760570
vt 0.330444 0.760570
vt 0.330444 0.807163
vt 0.341183 0.807163
vt 0.883640 0.277540
vt 0.883472 0.252105
vt 0.697464 0.681208
vt 0.697464 0.626198
vt 0.715140 0.626198
vt 0.715140 0.681208
vt 0.679786 0.681208
vt 0.679786 0.626198
vt 0.844377 0.264668
vt 0.750497 0.681208
vt 0.750497 0.626198
vt 0.768174 0.626198
vt 0.768174 0.681208
vt 0.732819 0.681208
vt 0.732819 0.626198
vt 0.703852 0.437940
vt 0.703852 0.426468
vt 0.771505 0.426468
vt 0.771505 0.437940
vt 0.703852 0.417352
vt 0.771505 0.417957
vt 0.703852 0.446450
vt 0.703852 0.437940
vt 0.771505 0.437940
vt 0.771505 0.446450
vt 0.703852 0.426468
vt 0.771505 0.426468
vt 0.703852 0.457925
vt 0.771505 0.457925
vt 0.703852 0.457923
vt 0.703852 0.446450
vt 0.771505 0.446450
vt 0.771505 0.457923
vt 0.703852 0.417352
vt 0.771505 0.417957
vt 0.847984 0.956045
vt 0.718680 0.956053
vt 0.716955 0.953782
vt 0.848340 0.953782
vt 0.717677 0.956051
vt 0.717184 0.953782
vt 0.848340 0.953782
vt 0.847077 0.956049
vt 0.635636 0.277544
vt 0.569312 0.277521
vt 0.569318 0.264102
vt 0.635640 0.264124
vt 0.635629 0.295639
vt 0.569307 0.295617
vt 0.005613 0.636986
vt 0.027703 0.636986
vt 0.027703 0.653373
vt 0.005613 0.653373
vt 0.005613 0.539633
vt 0.027703 0.539633
vt 0.027703 0.556017
vt 0.005613 0.556017
vt 0.569300 0.309037
vt 0.635626 0.309059
vn -0.9557 -0.2942 0.0000
vn -0.0000 0.0000 1.0000
vn 0.0000 -1.0000 0.0000
vn 0.9188 -0.3948 0.0000
vn 0.0000 0.0000 -1.0000
vn 1.0000 -0.0000 0.0000
vn -1.0000 0.0000 0.0000
vn 0.0000 0.8451 -0.5346
vn 0.0000 1.0000 0.0000
vn 0.0000 0.8451 0.5346
vn -0.9548 -0.2973 0.0000
vn -0.0123 -0.9999 0.0000
vn 0.9472 -0.3207 0.0000
vn 0.5977 0.8017 0.0000
vn -0.5778 0.8162 0.0000
vn -0.9990 0.0437 0.0000
vn -0.3503 -0.9366 0.0000
vn 0.7826 -0.6226 0.0000
vn 0.8339 0.5519 0.0000
vn -0.2672 0.9636 0.0000
vn 0.0000 -0.9863 0.1652
vn 0.0000 -0.9863 -0.1652
usemtl Material.013
s off
f 5/1/1 165/2/1 12/3/1 15/4/1
f 8/5/2 5/6/2 15/4/2 13/7/2
f 9/8/3 16/9/3 14/10/3 10/11/3
f 12/3/3 11/12/3 13/7/3 15/4/3
f 167/13/4 8/14/4 13/7/4 11/12/4
f 164/15/1 6/16/1 9/8/1 10/11/1
f 6/17/5 7/18/5 16/9/5 9/8/5
f 7/19/4 166/20/4 14/10/4 16/9/4
f 166/21/2 164/22/2 10/11/2 14/10/2
f 165/23/5 167/24/5 11/12/5 12/3/5
f 31/25/6 22/26/6 18/27/6 28/28/6
f 32/29/7 24/30/7 19/31/7 30/32/7
f 27/33/7 20/34/7 23/35/7 29/36/7
f 29/36/7 23/35/7 24/30/7 32/29/7
f 26/37/6 17/38/6 21/39/6 25/40/6
f 25/40/6 21/39/6 22/26/6 31/25/6
f 28/41/2 18/42/2 20/34/2 27/33/2
f 26/43/5 30/32/5 19/31/5 17/44/5
f 19/31/8 24/30/8 21/39/8 17/38/8
f 23/35/9 22/26/9 21/39/9 24/30/9
f 23/35/10 20/34/10 18/27/10 22/26/10
f 38/45/5 37/46/5 53/47/5 54/48/5
f 45/49/6 40/50/6 56/51/6 61/52/6
f 46/53/7 42/54/7 58/55/7 62/56/7
f 42/54/7 34/57/7 50/58/7 58/55/7
f 39/59/7 46/53/7 62/56/7 55/60/7
f 36/61/2 35/62/2 51/63/2 52/64/2
f 60/65/9 59/66/9 63/67/9 64/68/9
f 58/69/9 57/70/9 61/71/9 62/72/9
f 52/73/10 51/74/10 59/66/10 60/65/10
f 50/75/10 49/76/10 57/70/10 58/69/10
f 64/68/8 63/67/8 54/77/8 53/78/8
f 62/72/8 61/71/8 56/79/8 55/80/8
f 33/81/6 41/82/6 57/83/6 49/84/6
f 41/82/6 45/49/6 61/52/6 57/83/6
f 34/57/2 33/81/2 49/84/2 50/58/2
f 37/85/7 48/86/7 64/87/7 53/88/7
f 44/89/7 36/61/7 52/64/7 60/90/7
f 48/86/7 44/89/7 60/90/7 64/87/7
f 47/91/6 38/92/6 54/93/6 63/94/6
f 35/62/6 43/95/6 59/96/6 51/63/6
f 40/97/5 39/98/5 55/99/5 56/100/5
f 43/95/6 47/91/6 63/94/6 59/96/6
f 85/101/6 172/102/6 175/103/6 176/104/6
f 173/105/6 174/106/6 178/107/6 177/108/6
f 70/109/5 173/105/5 177/110/5 66/111/5
f 68/112/9 176/104/9 175/103/9 67/113/9
f 66/114/3 177/108/3 178/107/3 65/115/3
f 67/116/5 175/103/5 172/102/5 71/117/5
f 72/118/2 85/101/2 176/104/2 68/119/2
f 65/120/2 178/121/2 174/106/2 69/122/2
f 86/123/7 87/124/7 84/125/7 83/126/7
f 85/127/2 86/128/2 83/129/2 81/130/2
f 172/131/6 85/127/6 81/130/6 82/132/6
f 87/124/5 172/131/5 82/132/5 84/125/5
f 133/133/2 98/134/2 92/135/2 77/136/2
f 94/137/2 132/138/2 79/139/2 90/140/2
f 98/134/7 97/141/7 91/142/7 92/135/7
f 132/138/6 131/143/6 80/144/6 79/139/6
f 95/145/3 88/146/3 133/147/3 96/148/3
f 93/149/7 94/137/7 90/140/7 89/150/7
f 129/151/9 73/152/9 74/153/9 130/154/9
f 88/155/6 133/133/6 77/136/6 78/156/6
f 129/151/2 96/157/2 133/158/2 73/152/2
f 97/159/5 88/155/5 78/156/5 91/160/5
f 131/143/5 93/161/5 89/162/5 80/144/5
f 128/163/3 127/164/3 76/165/3 75/166/3
f 140/167/2 144/168/2 146/169/2 138/170/2
f 119/171/2 123/172/2 125/173/2 117/174/2
f 141/175/5 145/176/5 143/177/5
f 120/178/5 124/179/5 122/180/5
f 107/181/9 108/182/9 101/183/9 102/184/9
f 108/182/2 104/185/2 103/186/2 101/183/2
f 115/187/9 116/188/9 109/189/9 110/190/9
f 116/188/2 112/191/2 111/192/2 109/189/2
f 112/191/3 113/193/3 114/194/3 111/192/3
f 105/195/5 107/181/5 102/184/5 106/196/5
f 104/197/3 105/195/3 106/196/3 103/198/3
f 113/199/5 115/187/5 110/190/5 114/200/5
f 126/201/5 124/179/5 120/178/5 118/202/5
f 118/203/11 117/204/11 125/205/11 126/206/11
f 120/207/12 119/208/12 117/209/12 118/210/12
f 123/172/2 119/171/2 121/211/2
f 122/212/13 121/213/13 119/208/13 120/207/13
f 124/214/14 123/215/14 121/213/14 122/212/14
f 126/206/15 125/205/15 123/215/15 124/214/15
f 95/216/5 130/154/5 74/153/5 88/217/5
f 71/218/3 172/102/3 85/101/3 72/219/3
f 133/147/6 88/146/6 74/153/6 73/152/6
f 99/220/5 131/221/5 76/222/5 127/223/5
f 131/221/6 132/224/6 75/166/6 76/165/6
f 128/225/2 75/226/2 132/224/2 100/227/2
f 134/228/5 130/229/5 127/230/5 137/231/5
f 128/232/2 129/233/2 135/234/2 136/235/2
f 129/236/9 130/237/9 134/238/9 135/239/9
f 128/232/3 136/240/3 137/241/3 127/230/3
f 147/242/5 145/176/5 141/175/5 139/243/5
f 139/244/16 138/245/16 146/246/16 147/247/16
f 141/248/17 140/249/17 138/245/17 139/244/17
f 144/168/2 140/167/2 142/250/2
f 143/251/18 142/252/18 140/253/18 141/254/18
f 145/255/19 144/256/19 142/252/19 143/251/19
f 147/247/20 146/246/20 144/256/20 145/255/20
f 128/232/6 127/230/6 130/229/6 129/233/6
f 154/257/9 155/258/9 148/259/9 149/260/9
f 155/258/2 151/261/2 150/262/2 148/259/2
f 162/263/9 163/264/9 156/265/9 157/266/9
f 163/264/2 159/267/2 158/268/2 156/265/2
f 160/269/5 162/263/5 157/266/5 161/270/5
f 151/271/3 152/272/3 153/273/3 150/274/3
f 152/272/5 154/257/5 149/260/5 153/273/5
f 159/267/3 160/275/3 161/276/3 158/268/3
f 167/277/21 165/278/21 170/279/21 169/280/21
f 166/281/22 171/282/22 168/283/22 164/284/22
f 69/122/9 174/106/9 173/105/9 70/109/9
f 100/227/9 132/224/9 131/221/9 99/220/9
f 134/238/7 137/241/7 136/240/7 135/239/7
f 65/285/2 68/286/2 182/287/2 179/288/2
f 66/289/6 67/290/6 68/286/6 65/285/6
f 179/291/3 180/292/3 66/293/3 65/294/3
f 68/295/9 67/296/9 181/297/9 182/298/9
f 179/291/7 182/298/7 181/297/7 180/292/7
f 181/299/5 67/290/5 66/289/5 180/300/5
l 3 2
l 1 4
